<svg xmlns="http://www.w3.org/2000/svg" viewBox="0 0 500 500"><g id="freepik--background-simple--inject-5"><path d="M78.8,115.55l1-3.74c8.79-31.5,33.78-56,65.47-62.76a84.37,84.37,0,0,1,12.38-1.71c30-1.87,60.65,12.63,78.55,37.19,10.52,14.44,17.4,32.54,32.39,42.15,19.5,12.5,44.83,6,66.77-.93s47.31-13.37,66.76-.79c12.18,7.89,19.29,22,22.48,36.2,8.44,37.69-8.13,78.15-36.42,103.88S321.6,303.11,283.55,306c-53.31,4-109.13-10.51-150.07-45.57S68.77,168.58,78.8,115.55Z" style="fill:#f5f5f5"></path></g><g id="freepik--Table--inject-5"><path d="M482.4,469.35c0,.15-104.06.26-232.39.26S17.6,469.5,17.6,469.35s104-.26,232.41-.26S482.4,469.21,482.4,469.35Z" style="fill:#263238"></path></g><g id="freepik--character-2--inject-5"><path d="M286.26,264l-21.48,39.86-4.3-46.65-19.81,16.34s-3,50.93,1.06,64.94,24.21,17.52,35,4.45c5-6,34.37-60.06,34.37-60.06Z" style="fill:#ffbf9d"></path><path d="M256.91,240.26s-8.65-15.65-11.65-19.72-6.57-3.24-6.81,1a16.11,16.11,0,0,0,1.6,7.63s-.53-1.8-4,.28-1,8.81-1,8.81-1.65-2.92-3.34,3.09c0,0-2.88-.83-2.52,4.67S241,269.23,241,269.23l-.51,10.59,19.66-16.54L264.49,244Z" style="fill:#ffbf9d"></path><path d="M233.45,243c.63,1.22,4.83,8.54,3,11.73s-3.72-.1-5.32-2.36-2.82-6.94-2.82-6.94-.32-3.89,2.56-3.84C232,241.63,233.45,243,233.45,243Z" style="fill:#ffbf9d"></path><path d="M229.79,246.91c.24.12.49.23.77.34,3.56,1.35,8.35-.32,11.32-4.18a10.36,10.36,0,0,0,2.31-7.36s1-4.8,7.08-10.64l1.5-1.51c.17.8.32,1.49.45,2,1.94,7.91.11,12.49.11,12.49a10.38,10.38,0,0,0-2.14,7.41c.44,5.3,4.37,9.34,8.78,9s7.64-4.86,7.2-10.16a10.47,10.47,0,0,0-3.79-7.41c-4.92-3.83-4.41-7.74-5.19-11.75-.14-.72-.57-3-1.17-6.18,11-12.09,31.16-35.85,29.55-38.62,0,0-19.21,20.47-30.67,32.66l-8-42.55c-2.92,1.6,1,31.44,3.71,47.06-2,2.14-3.42,3.64-3.91,4.15-2.9,3.06-5.18,7.3-11.53,8.24a11.79,11.79,0,0,0-7.4,4.54c-2.85,3.7-3.1,8.2-.86,10.91l.21.26a6.54,6.54,0,0,1-6.58,1c-1.2-.55-2.22,1.13-1,1.67A8.83,8.83,0,0,0,229.79,246.91Zm35.69-2.44c.35,4.18-2.19,7.76-5.67,8s-6.59-2.94-6.93-7.12,2.2-7.76,5.67-8S265.14,240.29,265.48,244.47Zm-34.89.49c-2.85-1.87-3-6.15-.39-9.56s7.07-4.67,9.92-2.8,3,6.15.38,9.56S233.43,246.83,230.59,245Z" style="fill:#455a64"></path><path d="M255.92,219.39a1.71,1.71,0,1,0-2.13,1.15A1.71,1.71,0,0,0,255.92,219.39Z" style="fill:#263238"></path><path d="M257.29,211.58l2.86-.44s16.37-17.77,18.64-20.32,7.78-10.43,7.78-10.43Z" style="opacity:0.2"></path><path d="M253.62,248.39c-1.51-4.4,5.29-8.83,5.29-8.83a16.12,16.12,0,0,1-1.79-8.75c.74-5.75,3.57-4.27,3.57-4.27s5.9,9,5.33,13.94-5.1,11.67-5.1,11.67S255.76,254.62,253.62,248.39Z" style="fill:#ffbf9d"></path><path d="M241.21,232.41c.71,1.38,5.84,8.8,3.82,12.4s-4.19-.12-6-2.67-4.72-7.09-4.72-7.09-1.06-5,2.18-5.19A5.07,5.07,0,0,1,241.21,232.41Z" style="fill:#ffbf9d"></path><path d="M238.18,239.47c.7,1.38,5.48,7.87,3.46,11.47s-4.12-.16-6-2.67c-4.85-6.49-4.79-7-4.79-7s-1.71-3.84,2.25-5.32C236.15,234.85,238.18,239.47,238.18,239.47Z" style="fill:#ffbf9d"></path><path d="M235.86,236.71a4.47,4.47,0,0,1,.9.91,21.1,21.1,0,0,1,2,2.82,23.84,23.84,0,0,1,2.15,4.7,25.08,25.08,0,0,1,.76,3,4.7,4.7,0,0,1-.25,3.36,2.29,2.29,0,0,1-1.48,1,2,2,0,0,1-1.67-.58,8.2,8.2,0,0,1-1.05-1.2l-.9-1.19c-1.16-1.55-2.16-3-3-4.18s-1.46-2.21-1.89-2.91a5.79,5.79,0,0,1-.61-1.11,6.52,6.52,0,0,1,.78,1l2,2.81c.86,1.18,1.89,2.58,3.07,4.1a22.85,22.85,0,0,0,1.89,2.3,1.57,1.57,0,0,0,1.25.45,1.75,1.75,0,0,0,1.13-.82,4.27,4.27,0,0,0,.19-3,23.8,23.8,0,0,0-.72-2.91,24.18,24.18,0,0,0-2-4.66C237,238.1,235.79,236.77,235.86,236.71Z" style="fill:#ff9a6c"></path><path d="M239.82,230.85a4.13,4.13,0,0,1,.82.72,19.42,19.42,0,0,1,1.92,2.25,17.19,17.19,0,0,1,2.14,3.85,13.22,13.22,0,0,1,.92,5.33,4.45,4.45,0,0,1-.25,1.47,1.63,1.63,0,0,1-1.15,1,2.14,2.14,0,0,1-1.43-.3,6.7,6.7,0,0,1-1-.79,20.7,20.7,0,0,1-3-3.22,18.09,18.09,0,0,1-1.59-2.49,3.53,3.53,0,0,1-.44-1c.08,0,.77,1.35,2.32,3.27a23.94,23.94,0,0,0,3,3.08,2.83,2.83,0,0,0,2.07.95c.74-.15,1-1.13,1-2a13.13,13.13,0,0,0-.85-5.14,18.46,18.46,0,0,0-2-3.81C240.86,232,239.75,230.92,239.82,230.85Z" style="fill:#ff9a6c"></path><path d="M254.22,246.27a1.6,1.6,0,0,1,0-.66,6.65,6.65,0,0,1,.44-1.76,7.91,7.91,0,0,1,4.09-4.32l-.12.36-.24-.47a14.75,14.75,0,0,1-1.48-6.14,7.35,7.35,0,0,1,.28-2.6c.09,0,0,1,.09,2.58a16.42,16.42,0,0,0,1.58,5.94l.23.45.12.25-.25.11a8,8,0,0,0-4,4A19.41,19.41,0,0,0,254.22,246.27Z" style="fill:#ff9a6c"></path><path d="M262.94,328.87a26.84,26.84,0,0,1,.71-3.64,80.67,80.67,0,0,0,1.45-8.81,51.07,51.07,0,0,0,0-8.9c-.19-2.28-.38-3.69-.3-3.7a3.56,3.56,0,0,1,.25,1c.13.63.27,1.55.42,2.69a42.92,42.92,0,0,1,.17,9,58.4,58.4,0,0,1-1.62,8.84c-.28,1.11-.53,2-.72,2.62A4,4,0,0,1,262.94,328.87Z" style="fill:#ff9a6c"></path><polygon points="255.9 213.05 257.02 219.01 258.67 217.19 256.58 212.33 255.9 213.05" style="opacity:0.30000000000000004"></polygon><path d="M253.63,227.45a33.51,33.51,0,0,1-1.54-6,27.6,27.6,0,0,1-.81-6.15,55.63,55.63,0,0,1,1.32,6.05A41.21,41.21,0,0,1,253.63,227.45Z" style="fill:#263238"></path><path d="M324.17,149.87s-8.89,33.25-9.66,56.77l-.25,7.84s19.62,16.29,36.08,17.29l13.79-33.92Z" style="fill:#263238"></path><path d="M411.32,170.26c-3.75-16.21-5.19-35.08-18.68-45.66-10-7.84-21.4-10-34.11-9.5-6.25.26-13.32,3.15-18.76,6.23-7.47,4.23-10.64,12.81-14.24,20.6-7.22,15.61-6.31,36.74-1.42,42.62L389.34,219c13-6.78,21.18-9.48,23.26-26.84A63.49,63.49,0,0,0,411.32,170.26Z" style="fill:#263238"></path><path d="M392,137.49,350.9,125.38c-13.22-1.93-22.69,14.07-24.06,27.37-1.51,14.76-2.78,32.85-1.46,44C328,219.07,345,222.56,345,222.56s0,.34-.1,6.94l-1.63,12.7c-.17,4.33,2.17,6.68,4.81,10.11,6.06,7.84,18.5,11.68,30.1,4.08,8.37-5.5,8.11-39.14,8.69-46.78l11.81-63.92A7.82,7.82,0,0,0,392,137.49Z" style="fill:#ffbf9d"></path><path d="M333.51,173.41a2.85,2.85,0,0,0,2.64,3,2.73,2.73,0,0,0,3-2.45,2.85,2.85,0,0,0-2.63-3A2.74,2.74,0,0,0,333.51,173.41Z" style="fill:#263238"></path><path d="M329.56,166.14c.34.38,2.56-1.13,5.62-1s5.26,1.75,5.6,1.39c.17-.16-.16-.85-1.11-1.6a7.86,7.86,0,0,0-4.47-1.57,7.55,7.55,0,0,0-4.49,1.26C329.74,165.31,329.39,166,329.56,166.14Z" style="fill:#263238"></path><path d="M361.29,173.82a2.86,2.86,0,0,0,2.64,3,2.72,2.72,0,0,0,3-2.46,2.84,2.84,0,0,0-2.63-3A2.73,2.73,0,0,0,361.29,173.82Z" style="fill:#263238"></path><path d="M359.71,166.5c.34.38,2.57-1.13,5.63-1s5.25,1.75,5.6,1.39c.17-.16-.16-.84-1.12-1.6a7.87,7.87,0,0,0-4.46-1.57,7.6,7.6,0,0,0-4.5,1.26C359.9,165.67,359.55,166.33,359.71,166.5Z" style="fill:#263238"></path><path d="M347.77,186.37c0-.17-1.87-.57-4.94-1.09-.78-.11-1.51-.3-1.63-.84a4,4,0,0,1,.62-2.3l2.55-5.86c3.55-8.36,6.15-15.25,5.81-15.39s-3.49,6.52-7,14.88l-2.45,5.91a4.57,4.57,0,0,0-.53,3.06,2,2,0,0,0,1.25,1.19,5.45,5.45,0,0,0,1.32.24C345.83,186.46,347.76,186.55,347.77,186.37Z" style="fill:#263238"></path><path d="M344.86,222.56a56.48,56.48,0,0,0,30.06-6.76s-8,15.25-30.12,12.3Z" style="fill:#ff9a6c"></path><path d="M357.71,193.18A4.43,4.43,0,0,0,354.1,191a5.75,5.75,0,0,0-5.37,2.4,3.63,3.63,0,0,0-.34,2.58c.18.45,0,.23.37.54a10,10,0,0,0,4,2.73,4.33,4.33,0,0,0,4.65-1.51A4.41,4.41,0,0,0,357.71,193.18Z" style="fill:#ff9a6c"></path><path d="M357.26,189c-.5,0-.65,3.28-3.61,5.51s-6.47,1.71-6.52,2.17c-.06.21.76.68,2.25.79a8.3,8.3,0,0,0,5.44-1.62,7.21,7.21,0,0,0,2.81-4.63C357.82,189.81,357.49,189,357.26,189Z" style="fill:#263238"></path><path d="M358.61,156.68c.38.79,3.39.09,7,.15s6.63.73,7-.06c.18-.38-.4-1.11-1.66-1.79a12.18,12.18,0,0,0-10.69-.07C359,155.58,358.44,156.3,358.61,156.68Z" style="fill:#263238"></path><path d="M329.62,156.59c.64.67,3-.16,5.79-.33s5.26.22,5.78-.53c.23-.37-.18-1-1.26-1.66a8.87,8.87,0,0,0-4.77-.92,8.71,8.71,0,0,0-4.56,1.62C329.63,155.53,329.34,156.26,329.62,156.59Z" style="fill:#263238"></path><path d="M350.76,123c0,.16-.07.33-.1.49l.07,0Z" style="fill:#263238"></path><path d="M379.46,231.53c.63-5.82-1.72-11.67-1-17.49.72-6.17,4.72-11.46,6.36-17.45,2.62-9.59-1-19.79-2.3-29.71-5.56-.68-10.74-4-14.45-8.34-4.45-5.19-7.15-11.63-9.77-17.95a30.11,30.11,0,0,0,6,17.27,8.11,8.11,0,0,1-6.92-2.25,18.25,18.25,0,0,1-4.06-6.31,49.21,49.21,0,0,1-3.94-17.77,63.77,63.77,0,0,0,2.91,25.95c-1.56-.48-3.22,0-4.84.18s-3.45.19-4.59-1a5.73,5.73,0,0,1-1.26-3,66.82,66.82,0,0,1-.74-22.61,69,69,0,0,0-5.09,12.53,24.31,24.31,0,0,0-.1,13.37,2,2,0,0,1-2.76,0,4.72,4.72,0,0,1-1.2-2.79c-.59-3.73.07-7.53.73-11.25-2.22,3.94-3,8.5-4.19,12.86s-3.18,8.81-7,11.29a59,59,0,0,1,.55-17c.75-4.66,3-9.28,5-13.53a40.08,40.08,0,0,1,9-12.54c6.54-5.73,9.28-3.27,13.46-1.08l.49.21c0-.11,0-.21,0-.31l.18-.89a62.81,62.81,0,0,1,33,1.54c7.88,2.57,8.6,19.54,10.52,11.48,1.16-4.88,7.49-.43,7.56-.29,9.3,16.76,19.15,43.35,19.6,85.37h0Z" style="fill:#263238"></path><path d="M400.34,218.17c-.09-.06.86-1.42,2.18-4.09a42.17,42.17,0,0,0,3.76-12,41.35,41.35,0,0,0-1.24-18.4c-2-6.72-6.3-13.33-11.67-19.4s-11.15-11.33-16-16.49a80.35,80.35,0,0,1-11.54-14.9,40.16,40.16,0,0,1-4.63-11.83,27.09,27.09,0,0,1-.47-3.43,5.84,5.84,0,0,1,0-1.21c.12,0,.2,1.66.9,4.55a42.36,42.36,0,0,0,4.86,11.56A82,82,0,0,0,378,147.19c4.89,5.09,10.69,10.31,16.12,16.47s9.78,12.88,11.8,19.79A41.39,41.39,0,0,1,407,202.24a40,40,0,0,1-4.12,12,30.62,30.62,0,0,1-1.8,3A5.2,5.2,0,0,1,400.34,218.17Z" style="fill:#e0e0e0"></path><path d="M344.31,232.73c.21-.87-35.53,7.33-35.53,7.33s-14.69,61.14-16.34,71.32,5.66,68.29,5.66,68.29l-5,25.7L413,399.42l-12.63-26.35,10.07-71.33,6.22-56.32-30.26-13.65a31.29,31.29,0,0,1-16.8,12.95c-7.38,2.29-18.34,4.87-23.47-1.35C344.19,241,343.39,236.55,344.31,232.73Z" style="fill:#263238"></path><path d="M295.76,295.65c-.59-.15-23.6-10-23.6-10s18-29.17,21.12-34.34c6.9-11.39,20.1-12.13,20.1-12.13l-8.47,31.54C304.69,271.72,295.76,295.65,295.76,295.65Z" style="fill:#263238"></path><path d="M312.68,279.93c.06-.85,21.18-45,21.18-45s-4.66-1.61-8,1.31-20.8,41.92-20.8,41.92Z" style="fill:#5D8CB0"></path><path d="M375.32,292.38s13-48.26,23.87-55.67c0,0,5.18,1.52,6.23,3.41,0,0-17.36,37.39-21.73,53.92Z" style="fill:#5D8CB0"></path><path d="M386.32,318l-2.12-25.37-81.06-15.17s-10.08,18.64-12.25,34.79,4.82,69.8,4.82,69.8-15.36,67.1-19.33,87.3H429c-.19,0-2.75-40.41-21.21-78.05L389.06,349Z" style="fill:#5D8CB0"></path><g style="opacity:0.30000000000000004"><path d="M367.11,311.76c-17.67,10.22-38.18,18-58,22.93l-1,3.56A32.55,32.55,0,0,0,333.61,353c10.18.47,19.2,1.66,24.08-7.28C363.06,335.88,367.7,321.52,367.11,311.76Z"></path></g><path d="M308.74,298.1s-10.6,34.41,2.35,42.68,34.68,10.26,42.1,4.09c8.18-6.79,15.23-33.58,13.85-35.51S308.74,298.1,308.74,298.1Z" style="fill:#5D8CB0"></path><path d="M308.74,298.1l.48,0,1.41.21,5.4.85c4.68.76,11.45,1.88,19.81,3.34,4.18.73,8.75,1.54,13.66,2.46s10.14,1.89,15.59,3.32c.34.09.68.2,1,.31a3.32,3.32,0,0,1,1.05.5,1.08,1.08,0,0,1,.25.62,2.78,2.78,0,0,1,0,.57,7.88,7.88,0,0,1-.06,1.09,35.45,35.45,0,0,1-.74,4.32c-.64,2.88-1.45,5.77-2.4,8.68s-2,5.84-3.28,8.73a50,50,0,0,1-4.57,8.47,17.11,17.11,0,0,1-3.27,3.63,14.22,14.22,0,0,1-4.31,2.17,32.12,32.12,0,0,1-9.26,1.31A57.86,57.86,0,0,1,322.15,346a51.06,51.06,0,0,1-7.63-3.07c-1.19-.59-2.33-1.25-3.43-1.94a11.08,11.08,0,0,1-2.84-2.61,16.49,16.49,0,0,1-2.93-6.63,33.89,33.89,0,0,1-.81-6.63,67.56,67.56,0,0,1,.73-11.44c.47-3.34,1.06-6.19,1.58-8.5s1-4.1,1.35-5.3c.18-.58.31-1,.41-1.36s.16-.47.16-.46a3.09,3.09,0,0,1-.11.47c-.09.33-.2.79-.36,1.38-.31,1.21-.76,3-1.25,5.31s-1,5.17-1.49,8.5a67.66,67.66,0,0,0-.65,11.39,33.85,33.85,0,0,0,.83,6.55,16.16,16.16,0,0,0,2.88,6.46,10.93,10.93,0,0,0,2.74,2.5c1.08.67,2.21,1.32,3.4,1.91a50.8,50.8,0,0,0,7.57,3,57.26,57.26,0,0,0,17.25,2.64,31.54,31.54,0,0,0,9.11-1.29,13.74,13.74,0,0,0,4.15-2.09,16.19,16.19,0,0,0,3.17-3.52,50.16,50.16,0,0,0,4.51-8.37c1.26-2.88,2.33-5.79,3.28-8.69s1.75-5.77,2.4-8.62a40.44,40.44,0,0,0,.74-4.26,9.37,9.37,0,0,0,.06-1.05,1.72,1.72,0,0,0-.15-.85,3.23,3.23,0,0,0-.87-.38c-.32-.11-.66-.22-1-.31-5.4-1.43-10.66-2.38-15.54-3.35s-9.47-1.78-13.64-2.53L316,299.41l-5.38-1-1.39-.25A3,3,0,0,1,308.74,298.1Z" style="fill:#263238"></path><path d="M394.68,386.88a3,3,0,0,1-.65.15l-1.87.31c-1.62.26-4,.66-6.86,1.17-5.79,1-13.76,2.6-22.46,4.78s-16.48,4.53-22.07,6.36c-2.79.91-5,1.67-6.6,2.21l-1.8.6a2.67,2.67,0,0,1-.64.17,2.71,2.71,0,0,1,.6-.27l1.77-.69c1.53-.6,3.77-1.41,6.55-2.37,5.57-1.92,13.34-4.33,22.06-6.52s16.71-3.71,22.53-4.63c2.9-.47,5.26-.81,6.89-1l1.89-.22A3.28,3.28,0,0,1,394.68,386.88Z" style="fill:#263238"></path><path d="M397.46,388.14a2.7,2.7,0,0,1-.58.28l-1.69.7c-1.48.59-3.62,1.47-6.24,2.59-5.24,2.24-12.4,5.53-20.07,9.62s-14.38,8.24-19.14,11.37c-2.39,1.56-4.3,2.84-5.62,3.74l-1.52,1a2.42,2.42,0,0,1-.56.32,3.89,3.89,0,0,1,.49-.41l1.47-1.1c1.28-1,3.17-2.29,5.53-3.89a218.09,218.09,0,0,1,39.28-21c2.64-1.07,4.8-1.9,6.3-2.44l1.74-.61A3.07,3.07,0,0,1,397.46,388.14Z" style="fill:#263238"></path><path d="M384.39,291.58a12.55,12.55,0,0,1-.7,2.94,16.23,16.23,0,0,1-1.31,3.05A5.35,5.35,0,0,1,381,299a3.35,3.35,0,0,1-2.11.62,4,4,0,0,1-3.41-2.22,5.9,5.9,0,0,1-.59-3.29,12.46,12.46,0,0,1,.4-2.19c.14-.5.24-.78.28-.77s-.21,1.15-.32,3a5.84,5.84,0,0,0,.65,3,3.6,3.6,0,0,0,3,1.93,3.72,3.72,0,0,0,3.1-1.81,18.89,18.89,0,0,0,1.36-2.9A28.44,28.44,0,0,1,384.39,291.58Z" style="fill:#263238"></path><path d="M313.16,279.31a3.29,3.29,0,0,1-.22.87c-.17.54-.41,1.32-.8,2.27a10.64,10.64,0,0,1-1.86,3.11,9.16,9.16,0,0,1-1.64,1.42,3.48,3.48,0,0,1-2.35.43,3.75,3.75,0,0,1-2.14-1.05,4,4,0,0,1-1-2,3.52,3.52,0,0,1,.16-2c.21-.54.42-1,.61-1.54a20.89,20.89,0,0,1,1.33-3,20,20,0,0,1-1,3.13c-.28,1-1,2.08-.65,3.32a3.33,3.33,0,0,0,2.79,2.6,3.12,3.12,0,0,0,2-.35,8.57,8.57,0,0,0,1.54-1.32,10.7,10.7,0,0,0,1.88-2.92A27.93,27.93,0,0,1,313.16,279.31Z" style="fill:#263238"></path><circle cx="379.08" cy="294.68" r="2.31" style="fill:#263238"></circle><path d="M309.47,282.77a2.32,2.32,0,1,1-2.32-2.32A2.32,2.32,0,0,1,309.47,282.77Z" style="fill:#263238"></path><path d="M308.21,260.51a8.45,8.45,0,0,1-.48,1.39l-1.46,3.73c-1.24,3.14-2.9,7.5-4.62,12.36s-3.15,9.3-4.16,12.53c-.49,1.54-.89,2.82-1.21,3.81a7.93,7.93,0,0,1-.49,1.39,7.05,7.05,0,0,1,.3-1.44c.23-.92.58-2.24,1-3.87.93-3.25,2.31-7.72,4-12.59s3.44-9.22,4.77-12.33c.66-1.56,1.21-2.81,1.61-3.67A7.76,7.76,0,0,1,308.21,260.51Z" style="fill:#455a64"></path><path d="M409.84,304.92s-9.07-9-8.84-8.63l5.3,34.63Z" style="opacity:0.30000000000000004"></path><path d="M381.77,378.55l6.56-1.57s-5-3-8.56-3.14-7.25,3.29-8.25-2.91c0,0,9.47-4.36,15.05-1.7s19.62,11.56,25.33,12.25L429,399.33s-6.58,7.75-12.7,6.84-19-10.18-19-10.18l-7.39-.53L378,399.82a2.64,2.64,0,0,1-.14-3.83c1.81-2.12,9.75-4.4,9.75-4.4l6-1.77-6-1.15s-9.7,4.85-13.74,2.84a7.71,7.71,0,0,1-4.44-5.53Z" style="fill:#ffbf9d"></path><path d="M476.39,313.81c-9.21-14.44-40-50.23-46.78-56.62l-27.55,37.65,42.84,33.93L411,382.51l16.89,17.94,50.38-60.76S485.59,328.25,476.39,313.81Z" style="fill:#ffbf9d"></path><path d="M396.23,382.58c0,.12-1.54.18-3.94-.27a19.83,19.83,0,0,0-4.15-.41,18.65,18.65,0,0,0-4.92,1.23,78,78,0,0,0-8.52,4,19.23,19.23,0,0,1-3.54,1.71,16.45,16.45,0,0,1,3.24-2.24,52.26,52.26,0,0,1,8.51-4.32,13.26,13.26,0,0,1,9.5-.61C394.76,382.31,396.23,382.46,396.23,382.58Z" style="fill:#ff9a6c"></path><path d="M460.05,290s-32.53-41.47-45.38-45.22c-3.17-.93-16,16.05-17.21,19.13-1.44,3.68-4.77,14.32-.15,22.89,10.84,20.14,32.86,38.16,32.86,38.16Z" style="fill:#263238"></path><path d="M399.71,262.42a3.34,3.34,0,0,1,.25-.93c.2-.59.5-1.43.92-2.46a27.12,27.12,0,0,1,4.29-7.54,13.69,13.69,0,0,1,7.34-4.58,8.89,8.89,0,0,1,2.64-.17,3.08,3.08,0,0,1,1,.18,16.66,16.66,0,0,0-3.51.35,14,14,0,0,0-7,4.56,30.8,30.8,0,0,0-4.36,7.34A29.36,29.36,0,0,1,399.71,262.42Z" style="fill:#455a64"></path><path d="M456.41,327.63a32.19,32.19,0,0,0-6.38-.28,32.87,32.87,0,0,0-6.2,1.52,5.3,5.3,0,0,1,1.67-.92,15.83,15.83,0,0,1,9.09-.9A5.17,5.17,0,0,1,456.41,327.63Z" style="fill:#ff9a6c"></path></g><g id="freepik--character-1--inject-5"><path d="M68.65,125.26a9.43,9.43,0,0,0-8,6.89,6.9,6.9,0,0,1-.9,2.58c-.72.94-2,1.23-3,1.71a7.9,7.9,0,0,0-4.45,7.81c-2.27.62-4.66,1.32-6.24,3.06s-1.86,4.88.07,6.23c-3.51,2.5-3.71,8.44-.39,11.18a11.75,11.75,0,0,0-6.17,11.64c-2.16.65-4.48,1.41-5.78,3.26s-.74,5.07,1.48,5.5a5.64,5.64,0,0,0,1.45,7.26,4.67,4.67,0,0,0-1,7.29,4.66,4.66,0,0,0,7.12-1.82A8.06,8.06,0,0,0,48,203.58a9.14,9.14,0,0,0,1.57,10.16,4.52,4.52,0,1,0,3.08,8.5,12.51,12.51,0,0,0,2.43,6.13c1.45,1.69,4,2.66,6,1.74-1.41,3.5-1.35,7.82,1.07,10.71a15.82,15.82,0,0,0,2.42,2.2l5.34,4.21c1.69,1.34,4.36,2.62,5.75,1,2.55,4.11,9.1,4.89,12.56,1.51,2,4.42,8,4.83,12.82,4.56a8.62,8.62,0,0,0,4.41-1.06c2-1.33,2.52-4,3.77-6,.68-1.12,1.61-2.08,2.24-3.23a7.46,7.46,0,0,0-2-9.22c2.79-4,2.13-9.38,1.36-14.2-.67-4.15-1.39-8.44-3.75-11.91a3,3,0,0,1-.71-1.65c0-.81.75-1.4,1.36-1.94a10.74,10.74,0,0,0,2.94-11.2c-.39-1.15-1-2.31-.79-3.5a6.19,6.19,0,0,1,1.44-2.58c2.92-3.86,4.31-10,.61-13.12A14.35,14.35,0,0,0,115,157.11,11.2,11.2,0,0,0,118.2,142c1.9-2.41,3.88-5,4.21-8s-1.75-6.57-4.82-6.58c1.35-1.42,1.13-3.81,0-5.44a13.07,13.07,0,0,0-4.54-3.65c-2.55-1.48-5.22-3-8.16-3.19s-6.22,1.42-6.93,4.28c-.32-1.56-2.12-2.45-3.71-2.3a10,10,0,0,0-4.33,1.9c-2.26-3.36-8.32-2.8-9.92.92-3.06-2.8-8.92-1-9.82,3.09" style="fill:#263238"></path><path d="M209,154.78c-1.18-2.89-4.42-4.48-7.52-4.7,1.85-2.28.9-6-1.48-7.73s-5.69-1.67-8.43-.6a9.37,9.37,0,0,0-3.35-9.58,13.86,13.86,0,0,0-10.16-2.61,8.71,8.71,0,0,0-10.14-11.68c-.68-2.43-3.19-4-5.69-4.35a19.62,19.62,0,0,0-7.47.89,11.38,11.38,0,0,0-20.32-3c-6.1-2.9-18.29.29-18.32,9L142.93,242c2.72,2.21,8.53,5.57,19.4,5.61,3.49,0,11.78-6.28,11.23-9.73a10.63,10.63,0,0,0,9.4-11.1c3.36,1.2,6.25-2.6,7.82-5.81.81-1.66-.39.58.51-1,2.64-4.76.87-9.78-.38-11,2,.41,5.87,1,8-2.71.89-1.53.09-5.53.09-5.53.43-1.86,1.18-2.79,1.56-4.66s0-4.13-1.68-5.09c2.73-.36,6.16-1.45,6.28-4.19.06-1.22-.64-2.37-.64-3.59a14.43,14.43,0,0,1,.58-2.65c.85-4.23-3-7.82-6.42-10.45a14.28,14.28,0,0,0,5.17-2.88c1.41-1.4,2.18-3.64,1.31-5.42C208.27,161.66,210.19,157.67,209,154.78Z" style="fill:#263238"></path><path d="M149.05,246.41c-.52-7-1.24-15.8-1.24-15.77s16.22-2.7,19.57-23.86c1.67-10.52,1.13-27.77.24-41.87-.8-12.7-12.57-29.39-28.26-28.58l-7-.43L106.26,148a7.44,7.44,0,0,0-6.65,7.55l8.58,90.92,14.16,28.69,27-18Z" style="fill:#ae7461"></path><path d="M135.74,203.62a4.5,4.5,0,0,1,1.39-2.83,4.57,4.57,0,0,1,5.5-.62,6.09,6.09,0,0,1,2.63,5.6h0a5.5,5.5,0,0,1-3.83,2.51,6.34,6.34,0,0,1-.75.07,5,5,0,0,1-3.42-1.14A4.47,4.47,0,0,1,135.74,203.62Z" style="fill:#6f4439"></path><path d="M159,183.1a2.71,2.71,0,0,1-2.61,2.74,2.59,2.59,0,0,1-2.8-2.44,2.72,2.72,0,0,1,2.61-2.74A2.59,2.59,0,0,1,159,183.1Z" style="fill:#263238"></path><path d="M162.6,172.22c-.34.36-2.39-1.16-5.32-1.16s-5.05,1.47-5.37,1.12c-.16-.16.19-.8,1.12-1.48a7.46,7.46,0,0,1,4.3-1.33,7.12,7.12,0,0,1,4.23,1.37C162.46,171.42,162.76,172.06,162.6,172.22Z" style="fill:#263238"></path><path d="M145.78,196.09c0-.17,1.8-.48,4.75-.86.74-.08,1.45-.22,1.57-.73a3.7,3.7,0,0,0-.5-2.21l-2.2-5.68c-3.07-8.08-5.29-14.73-5-14.85s3.08,6.33,6.14,14.42q1.11,3,2.11,5.71a4.26,4.26,0,0,1,.39,2.92,1.85,1.85,0,0,1-1.22,1.09,4.84,4.84,0,0,1-1.27.18C147.63,196.24,145.79,196.26,145.78,196.09Z" style="fill:#263238"></path><path d="M147.81,230.64a53.75,53.75,0,0,1-28.34-7.55s7.56,14.67,28.73,12.68Z" style="fill:#6f4439"></path><path d="M137.19,198.11c.47,0,.48,3.14,3.2,5.39s6.08,1.9,6.11,2.34c0,.2-.75.62-2.18.66a7.86,7.86,0,0,1-5.1-1.78,6.85,6.85,0,0,1-2.48-4.52C136.62,198.88,137,198.09,137.19,198.11Z" style="fill:#263238"></path><path d="M162.64,165.73c-.49.72-2.73.24-5.34.46s-4.77.9-5.35.26c-.25-.31,0-1,.94-1.72a8.28,8.28,0,0,1,8.61-.58C162.49,164.74,162.85,165.39,162.64,165.73Z" style="fill:#263238"></path><path d="M127.15,183.21a2.7,2.7,0,0,0,2.71,2.63,2.59,2.59,0,0,0,2.71-2.54,2.71,2.71,0,0,0-2.72-2.64A2.58,2.58,0,0,0,127.15,183.21Z" style="fill:#263238"></path><path d="M123.77,173.27c.35.35,2.35-1.25,5.27-1.36s5.11,1.28,5.41.91c.15-.16-.22-.79-1.17-1.43a7.47,7.47,0,0,0-4.36-1.16,7.08,7.08,0,0,0-4.17,1.52C123.88,172.47,123.6,173.12,123.77,173.27Z" style="fill:#263238"></path><path d="M125,163.85c.6.64,2.82-.13,5.53-.27s5,.26,5.51-.45c.22-.35-.16-1-1.19-1.59a8.34,8.34,0,0,0-4.54-.91,8.23,8.23,0,0,0-4.36,1.49C125,162.84,124.74,163.54,125,163.85Z" style="fill:#263238"></path><path d="M105.19,190.78c0-1.58-1.83-5.29-3.38-5.53-4.16-.65-11.65-.31-11.72,10.24C90,209.92,104.51,207,104.53,206.62S105.2,196.22,105.19,190.78Z" style="fill:#ae7461"></path><path d="M100.59,201.32c-.07,0-.26.18-.68.37a2.53,2.53,0,0,1-1.88,0c-1.52-.57-2.79-3-2.84-5.6a8.29,8.29,0,0,1,.72-3.59,2.9,2.9,0,0,1,1.91-1.92,1.27,1.27,0,0,1,1.47.7c.2.4.1.69.18.71s.31-.24.2-.83a1.62,1.62,0,0,0-.57-.91,1.92,1.92,0,0,0-1.38-.38,3.53,3.53,0,0,0-2.64,2.22,8.59,8.59,0,0,0-.9,4c.08,2.91,1.55,5.64,3.63,6.25a2.69,2.69,0,0,0,2.3-.37C100.56,201.67,100.64,201.35,100.59,201.32Z" style="fill:#6f4439"></path><path d="M127.74,140.89a75.74,75.74,0,0,0-28.6,5.49c-2.7,1.09-5.49,2.46-7,5-1.33,2.18-1.47,4.88-1.41,7.44.19,8,3.52,17.78,6.66,25.16l10.08,5.88c7.69-1.91,4-15.18,3.55-21.84a15.77,15.77,0,0,0,9-14A17.4,17.4,0,0,0,127.74,140.89Z" style="fill:#263238"></path><path d="M124.9,137.05a8.77,8.77,0,0,0-8.39,13.18,7.46,7.46,0,0,0-.6,14.71,6,6,0,0,0-3.52,5.31,7.54,7.54,0,0,0,2.76,5.9,6.21,6.21,0,0,0,4.36,1.56,4,4,0,0,0,3.54-2.71,3,3,0,0,0-2.1-3.67c2.15-.53,3.39-3,3.28-5.19a13.72,13.72,0,0,0-2.36-6.16,4.34,4.34,0,0,0,.58-6.83,8.79,8.79,0,0,0,7.26-6.26c.22-.8-.35-2.08-1-1.58a4.62,4.62,0,0,0,2.8-6" style="fill:#263238"></path><path d="M175,169.76c1.12-6-1.85-10.66-6.24-14.89a14.31,14.31,0,0,0-3.83-18.29,6.91,6.91,0,0,0-9.85-7.74c-1.92-2.45-4-5-6.91-6.12s-6.89,0-7.8,3c-2.82-4.55-10.12-5.37-13.88-1.55-3.87-1.88-9.12,1.81-8.66,6.09l5,6.8a7,7,0,0,0,3.17,12.89,9.36,9.36,0,0,0,2.17,9.62c1.15,1.14,3.59,1.61,4,0,1.15,1.47,3.79.22,4.16-1.61s-.66-3.63-1.65-5.21a3.77,3.77,0,0,0,2.93-6.93l4.58.34a7.91,7.91,0,0,0,1.65,6.48c1.56,1.7,4.41,2.28,6.25.89-1.19,4.43,3,9.39,7.53,9,0,0,2.32.88,3.47-1.86s0-6.12,0-6.12.95,8,4.32,8.83c1.26.32,2,1.92,2.53,3.79a4.58,4.58,0,0,0,7.11,2.58Z" style="fill:#263238"></path><path d="M110.35,185.82a5,5,0,0,0,1.16-7.69,5.18,5.18,0,0,0-1.79-7.82,8.53,8.53,0,0,0,.64-8.88,7.4,7.4,0,0,0-7.94-3.64,6.56,6.56,0,0,0-4.89,7l1.32,14.06a2.39,2.39,0,0,0,3,3.71,6.77,6.77,0,0,0-1.2,6.32,2.93,2.93,0,0,0,1.31,1.79,1.6,1.6,0,0,0,1.32.05,3.29,3.29,0,1,0,5.62,3.12,2.31,2.31,0,0,0,3.06-.35,4.65,4.65,0,0,0,1.08-3.15C113.06,188.46,112.21,186.22,110.35,185.82Z" style="fill:#263238"></path><path d="M169.88,176.38a7.38,7.38,0,0,0,1.11.08,5.73,5.73,0,0,0,3-.92,5.82,5.82,0,0,0,1.66-1.57,5,5,0,0,0,.89-2.56,5.72,5.72,0,0,0-.66-3,5.48,5.48,0,0,0-2.48-2.44l-.18-.08.16-.12a6.14,6.14,0,0,0,1.77-6.8,5.36,5.36,0,0,0-2.61-3.09,3.81,3.81,0,0,0-2.07-.42,2.54,2.54,0,0,0-1,.35,2.28,2.28,0,0,0-.72.79,1.61,1.61,0,0,0,.16,2,2.07,2.07,0,0,0,2.1.32,2.45,2.45,0,0,0,1.55-1.61,5.25,5.25,0,0,0,.21-2.41,8.66,8.66,0,0,0-2-4.61,5.32,5.32,0,0,0-2-1.57,3.17,3.17,0,0,0-2.49,0l-.46.19.24-.44a9.35,9.35,0,0,0,.5-7.85,6.52,6.52,0,0,0-1.76-2.38,6.42,6.42,0,0,0-2.62-1.28,5.49,5.49,0,0,0-5.29,1.36l-.28-.22a3.44,3.44,0,0,0,0-3.53,4.71,4.71,0,0,0-2.71-2.31,7.13,7.13,0,0,0-3.55-.1,13.79,13.79,0,0,0-3.3,1.18l-.26.13,0-.29a6.06,6.06,0,0,0-1.38-4.42,5.69,5.69,0,0,0-3.79-2.13,6.11,6.11,0,0,0-4,1,6,6,0,0,0-2.37,2.92l-.07.19-.14-.15a9.49,9.49,0,0,0-6.09-3,10.74,10.74,0,0,0-5.13.68,9.88,9.88,0,0,0-2.79,1.72c-.28.25-.47.47-.61.6l-.21.21a9.74,9.74,0,0,1,.77-.86,9.37,9.37,0,0,1,2.79-1.79,10.68,10.68,0,0,1,5.2-.75,10.05,10.05,0,0,1,3.21.84,9.21,9.21,0,0,1,3.05,2.17l-.21,0a6.25,6.25,0,0,1,2.46-3.07,6.16,6.16,0,0,1,9.6,5.83L147,133a13.68,13.68,0,0,1,3.37-1.22,7.46,7.46,0,0,1,3.72.1,5,5,0,0,1,2.91,2.47,4.57,4.57,0,0,1,.54,1.92,3.33,3.33,0,0,1-.55,2l-.27-.21a5.82,5.82,0,0,1,5.63-1.46,6.64,6.64,0,0,1,2.77,1.35,6.76,6.76,0,0,1,1.85,2.51,9.64,9.64,0,0,1-.51,8.16l-.22-.25a3.53,3.53,0,0,1,2.76,0,5.66,5.66,0,0,1,2.14,1.67,9,9,0,0,1,2,4.8,5.7,5.7,0,0,1-.22,2.56,3.4,3.4,0,0,1-.67,1.11,2.6,2.6,0,0,1-1.1.69,2.41,2.41,0,0,1-2.43-.4,1.79,1.79,0,0,1-.51-1.16,2.29,2.29,0,0,1,.3-1.21,2.65,2.65,0,0,1,.84-.89,2.72,2.72,0,0,1,1.13-.39,4.08,4.08,0,0,1,2.24.45,5.61,5.61,0,0,1,2.74,3.27,6.38,6.38,0,0,1-1.88,7.08l0-.2a5.76,5.76,0,0,1,2.57,2.55,5.93,5.93,0,0,1,.65,3.16,5.11,5.11,0,0,1-1,2.63,6,6,0,0,1-4.8,2.47A4,4,0,0,1,169.88,176.38Z" style="fill:#455a64"></path><path d="M79.74,204.34a4.39,4.39,0,0,1-1.11-.24,6.2,6.2,0,0,1-2.7-1.84,6.27,6.27,0,0,1-1.21-2.08,5.64,5.64,0,0,1-.22-2.86,6.41,6.41,0,0,1,1.44-3,6.15,6.15,0,0,1,3.16-2l.07.2a2.73,2.73,0,0,1-2.12.07,4.11,4.11,0,0,1-1.8-1.33,5.93,5.93,0,0,1-.75-4.63,18.78,18.78,0,0,1,.63-2.45,8.41,8.41,0,0,1,1.16-2.37,4.54,4.54,0,0,1,2.18-1.66,3.28,3.28,0,0,1,2.81.23l.16.1-.14.14a4.73,4.73,0,0,1-4.92.75,4.66,4.66,0,0,1-2.12-1.66,5.37,5.37,0,0,1-.93-2.58,6,6,0,0,1,2-5.12,7.74,7.74,0,0,1,5.41-1.94H81l-.1.23a1.46,1.46,0,0,1-.79.79,2.07,2.07,0,0,1-1.1.09,2.7,2.7,0,0,1-1.8-1.18,3.06,3.06,0,0,1-.26-2.16,7.25,7.25,0,0,1,.81-2c.36-.62.76-1.21,1.16-1.81a14.38,14.38,0,0,1,1.33-1.72,5.46,5.46,0,0,1,3.93-1.93,3.49,3.49,0,0,1,1.73.45l.51.3-.59,0a5.84,5.84,0,0,1-5-2.54,5.26,5.26,0,0,1-.94-2.69,5.43,5.43,0,0,1,.59-2.75,5.68,5.68,0,0,1,4.33-3.16,4.25,4.25,0,0,1,2.63.66,2.87,2.87,0,0,1,1,1,2.27,2.27,0,0,1,.31,1.35v.11l-.11,0a2.3,2.3,0,0,1-1.78-.18,3.36,3.36,0,0,1-1.27-1.21,3.78,3.78,0,0,1-.42-3.31,6.22,6.22,0,0,1,2-2.62,15.37,15.37,0,0,1,2.67-1.69l-.08.16a8.13,8.13,0,0,1,1.09-5.52,7.71,7.71,0,0,1,4-3.34,8.16,8.16,0,0,1,4.86-.11,8.05,8.05,0,0,1,3.78,2.35l-.21.07a7.75,7.75,0,0,1,1.2-3.87,8,8,0,0,1,2.53-2.55,7.3,7.3,0,0,1,2.93-1,7.86,7.86,0,0,1,2.6.11,7.61,7.61,0,0,1,3.22,1.48,5.53,5.53,0,0,1,.89.84l-.23-.2a6.7,6.7,0,0,0-.7-.59,8,8,0,0,0-3.2-1.41,8.27,8.27,0,0,0-2.56-.08,7.23,7.23,0,0,0-2.85,1,7.88,7.88,0,0,0-2.46,2.51,7.63,7.63,0,0,0-1.14,3.77v.29l-.2-.22a7.69,7.69,0,0,0-3.66-2.25,7.91,7.91,0,0,0-4.71.12A7.43,7.43,0,0,0,91,139a7.83,7.83,0,0,0-1,5.31l0,.11-.1.05a15.38,15.38,0,0,0-2.61,1.67,5.79,5.79,0,0,0-1.86,2.48,3.45,3.45,0,0,0,.39,3,3.13,3.13,0,0,0,1.14,1.09,2,2,0,0,0,1.53.15l-.11.15a2.2,2.2,0,0,0-1.13-2,3.92,3.92,0,0,0-2.41-.6,5.38,5.38,0,0,0-4,3A5.14,5.14,0,0,0,80.2,156a4.91,4.91,0,0,0,.88,2.51,5.5,5.5,0,0,0,4.69,2.39l-.08.33a3.06,3.06,0,0,0-1.55-.4,4.36,4.36,0,0,0-2,.51,6.45,6.45,0,0,0-1.65,1.3A22.58,22.58,0,0,0,78,166.06a6.43,6.43,0,0,0-.77,1.89,2.7,2.7,0,0,0,.21,1.91,2.34,2.34,0,0,0,1.56,1,1.28,1.28,0,0,0,1.51-.67l.16.24a7.4,7.4,0,0,0-5.17,1.84,5.72,5.72,0,0,0-1.88,4.84,5.1,5.1,0,0,0,.88,2.43,4.35,4.35,0,0,0,2,1.54,4.41,4.41,0,0,0,4.6-.68l0,.24a3,3,0,0,0-2.55-.2,4.15,4.15,0,0,0-2,1.55,8.15,8.15,0,0,0-1.13,2.29,17.78,17.78,0,0,0-.62,2.41,5.69,5.69,0,0,0,.68,4.43,3.1,3.1,0,0,0,3.63,1.21l.07.21a6,6,0,0,0-3.06,1.91,6.18,6.18,0,0,0-1.42,2.89,5.47,5.47,0,0,0,.19,2.78,6.41,6.41,0,0,0,3.79,3.9C79.35,204.29,79.74,204.31,79.74,204.34Z" style="fill:#455a64"></path><path d="M56.11,197l-.33.1a1.92,1.92,0,0,1-.41.07,2.16,2.16,0,0,1-.58,0,4.93,4.93,0,0,1-3.38-1.66A6,6,0,0,1,50,193.1a7.46,7.46,0,0,1-.09-3.31,12,12,0,0,1,1.35-3.58,15.48,15.48,0,0,1,1.14-1.76,2.76,2.76,0,0,1,1.88-1.21l0,.25a3,3,0,0,1-2.16-.59A4.32,4.32,0,0,1,50.76,181a6.53,6.53,0,0,1,.41-4.87,12.69,12.69,0,0,1,2.93-4.42,7,7,0,0,1,2.38-1.51,3.87,3.87,0,0,1,2.89.14l-.15.28a4.07,4.07,0,0,1-1.88-2.8,8.73,8.73,0,0,1,.08-3.49A12.29,12.29,0,0,1,58.64,161a5.84,5.84,0,0,1,2.62-2.58,4.19,4.19,0,0,1,3.73.15,2.78,2.78,0,0,1,1.24,1.53,1.75,1.75,0,0,1,0,1,1.38,1.38,0,0,1-.7.8,2,2,0,0,1-2-.17,3.14,3.14,0,0,1-1.1-1.69,8.12,8.12,0,0,1,0-4,9.45,9.45,0,0,1,7.84-7.24l0,.34a3.17,3.17,0,0,1-1.93-1.44,4.68,4.68,0,0,1-.64-2.29,5.26,5.26,0,0,1,1.76-4.16,9,9,0,0,1,4-1.88,27.26,27.26,0,0,1,4.24-.52l-.13.24a6.29,6.29,0,0,1-.13-5.65,7.29,7.29,0,0,1,3.79-3.78,9.36,9.36,0,0,1,5-.58,12.08,12.08,0,0,1,4.34,1.55l-.15,0a13.94,13.94,0,0,1,7.14-3.59,14.74,14.74,0,0,1,6,.13,13.29,13.29,0,0,1,3.55,1.37c.38.21.64.41.83.53l.28.19-.3-.16c-.19-.11-.46-.3-.84-.5a13.92,13.92,0,0,0-3.55-1.3,14.92,14.92,0,0,0-6-.07,13.74,13.74,0,0,0-7,3.58l-.07.06-.08,0a11.92,11.92,0,0,0-4.26-1.49,9,9,0,0,0-4.83.58,6.93,6.93,0,0,0-3.62,3.64,6,6,0,0,0,.13,5.36l.13.22-.26,0a27.28,27.28,0,0,0-4.18.52,8.65,8.65,0,0,0-3.86,1.81,4.92,4.92,0,0,0-1.64,3.9,4.22,4.22,0,0,0,.59,2.11,2.78,2.78,0,0,0,1.71,1.29l1,.24-1,.11a9.11,9.11,0,0,0-7.54,7,7.75,7.75,0,0,0,0,3.77,2.84,2.84,0,0,0,1,1.5,1.67,1.67,0,0,0,1.64.15,1.15,1.15,0,0,0,.51-1.43,2.44,2.44,0,0,0-1.08-1.33,3.88,3.88,0,0,0-3.42-.13,5.59,5.59,0,0,0-2.46,2.42,12.73,12.73,0,0,0-1.19,3.27,8.47,8.47,0,0,0-.08,3.36,3.75,3.75,0,0,0,1.72,2.6l-.15.28a3.48,3.48,0,0,0-2.65-.13A6.72,6.72,0,0,0,54.31,172a12.46,12.46,0,0,0-2.88,4.31,6.27,6.27,0,0,0-.42,4.66,3.32,3.32,0,0,0,3.29,2.3l0,.25a2.47,2.47,0,0,0-1.71,1.1,14.32,14.32,0,0,0-1.14,1.73,12.14,12.14,0,0,0-1.35,3.5,7.31,7.31,0,0,0,.06,3.24,5.79,5.79,0,0,0,1.32,2.37,4.9,4.9,0,0,0,3.29,1.68A5.09,5.09,0,0,0,56.11,197Z" style="fill:#455a64"></path><path d="M105.28,186a2.56,2.56,0,0,1-.86.4,3.86,3.86,0,0,1-2.64-.29,4.4,4.4,0,0,1-2.55-3.24,6.89,6.89,0,0,1,1.35-5.28l.07.22a6.51,6.51,0,0,1-3.35-2.42A6.46,6.46,0,0,1,103.07,165v.36a1.94,1.94,0,0,1-1-.15,2.57,2.57,0,0,1-1.33-1.44,4.54,4.54,0,0,1-.23-1.89,11.74,11.74,0,0,1,.78-3.54,5.15,5.15,0,0,1,1-1.5,3.34,3.34,0,0,1,1.49-.93,3.21,3.21,0,0,1,1.71-.07,2.26,2.26,0,0,1,1.4.92l.31.45-.5-.21a6.62,6.62,0,0,1-3.06-2.64,7.49,7.49,0,0,1-.78-1.74,7.33,7.33,0,0,1-.28-1.77,6,6,0,0,1,.8-3.14,6.88,6.88,0,0,1,5.46-3.39,4.57,4.57,0,0,1,1.37.1,11.94,11.94,0,0,0-1.37,0,6.8,6.8,0,0,0-5.26,3.4,5.86,5.86,0,0,0-.74,3,6.84,6.84,0,0,0,1.05,3.36,6.32,6.32,0,0,0,2.93,2.5l-.19.24a2.44,2.44,0,0,0-2.75-.71,3.7,3.7,0,0,0-2.24,2.25,11.73,11.73,0,0,0-.75,3.43,4.09,4.09,0,0,0,.21,1.74,2.29,2.29,0,0,0,1.14,1.23,1.48,1.48,0,0,0,.79.12v.36A6.38,6.38,0,0,0,96.33,171a6.46,6.46,0,0,0,1.22,4.14,6.24,6.24,0,0,0,3.18,2.34l.19.06-.12.16a6.69,6.69,0,0,0-1.34,5.07,4.32,4.32,0,0,0,2.38,3.14,3.9,3.9,0,0,0,2.56.35A7.7,7.7,0,0,0,105.28,186Z" style="fill:#455a64"></path><path d="M139.3,144.88a3.9,3.9,0,0,0-.7-1.34,5.79,5.79,0,0,0-3.67-1.71,11.85,11.85,0,0,0-2.86,0,6.09,6.09,0,0,0-3,1.17,3.87,3.87,0,0,0-1.57,3,2.47,2.47,0,0,0,.67,1.65,1.81,1.81,0,0,0,1.69.45,2.47,2.47,0,0,0,1.5-1,4.05,4.05,0,0,0,.68-1.73,5.78,5.78,0,0,0-.49-3.48,6,6,0,0,0-2.07-2.45,5.34,5.34,0,0,0-2.65-.91,6.38,6.38,0,0,0-3.94,1,11.17,11.17,0,0,0-1.18,1,4.19,4.19,0,0,1,1.1-1.08,6.3,6.3,0,0,1,4-1.13,5.65,5.65,0,0,1,2.79.91,6.25,6.25,0,0,1,2.21,2.56,6.1,6.1,0,0,1,.54,3.68,4.51,4.51,0,0,1-.74,1.87,2.83,2.83,0,0,1-1.72,1.19,2.15,2.15,0,0,1-2-.55,2.8,2.8,0,0,1-.76-1.89,4.17,4.17,0,0,1,1.71-3.29,6.3,6.3,0,0,1,3.15-1.2,11.35,11.35,0,0,1,2.93.05,5.82,5.82,0,0,1,3.74,1.87,2.87,2.87,0,0,1,.53,1A1.65,1.65,0,0,1,139.3,144.88Z" style="fill:#455a64"></path><path d="M182.4,145.07s0-.37,0-1.06a7.18,7.18,0,0,0-.79-2.9,6.82,6.82,0,0,0-3.38-3.22,7.2,7.2,0,0,0-6.09.18l-.2.11V138a22,22,0,0,0-.16-6.94,8.57,8.57,0,0,0-1.63-3.42,5.73,5.73,0,0,0-3.3-2.1,3.31,3.31,0,0,0-2,.2,2.16,2.16,0,0,0-1.23,1.51,1.76,1.76,0,0,0,.07,1,1.45,1.45,0,0,0,.66.72,2.12,2.12,0,0,0,2-.1,2.06,2.06,0,0,0,1-1.79,3.25,3.25,0,0,0-.7-2.06,6,6,0,0,0-4.1-1.89,14.05,14.05,0,0,0-8.57,1.71l-.37.21.12-.41a5.45,5.45,0,0,0,.2-1.55,6.14,6.14,0,0,0-.27-1.53,7,7,0,0,0-1.56-2.6,7.91,7.91,0,0,0-5.25-2.3,13.11,13.11,0,0,0-5.35.82,5.2,5.2,0,0,0-2,1.45,2.41,2.41,0,0,0-.51,1,1.56,1.56,0,0,0,.19,1.06l.51.9-.72-.74a10,10,0,0,0-6.08-2.87,11.17,11.17,0,0,0-5.12.63,10.14,10.14,0,0,0-2.86,1.63c-.29.25-.49.46-.63.59s-.22.2-.23.19a2.35,2.35,0,0,1,.2-.22c.14-.14.33-.36.61-.61a9.77,9.77,0,0,1,2.85-1.72,11.16,11.16,0,0,1,5.2-.7,10.19,10.19,0,0,1,6.25,2.9l-.21.16a1.82,1.82,0,0,1-.23-1.25,2.67,2.67,0,0,1,.56-1.16,5.37,5.37,0,0,1,2.11-1.55,13.31,13.31,0,0,1,5.5-.86,8.17,8.17,0,0,1,5.46,2.38A7.18,7.18,0,0,1,154,121.4a6.25,6.25,0,0,1,.28,1.62,5.82,5.82,0,0,1-.21,1.66l-.25-.2a14.45,14.45,0,0,1,8.79-1.77,9.25,9.25,0,0,1,2.37.59,4.84,4.84,0,0,1,2,1.44,3.68,3.68,0,0,1,.77,2.29,2.43,2.43,0,0,1-1.14,2.08,2.49,2.49,0,0,1-2.34.1,1.74,1.74,0,0,1-.82-.89,2,2,0,0,1-.08-1.19,2.52,2.52,0,0,1,1.42-1.75,3.6,3.6,0,0,1,2.19-.21,6,6,0,0,1,3.48,2.23,8.75,8.75,0,0,1,1.68,3.54,22.28,22.28,0,0,1,.13,7l-.19-.13a7.39,7.39,0,0,1,6.29-.14,7,7,0,0,1,3.43,3.35,7.1,7.1,0,0,1,.74,3A4.58,4.58,0,0,1,182.4,145.07Z" style="fill:#455a64"></path><path d="M189.41,185.08a3.42,3.42,0,0,1,.66.62,5.3,5.3,0,0,1,1.1,2.35,5,5,0,0,1-.87,4,5.33,5.33,0,0,1-4.9,2.08l-.35,0,.3-.18a2.44,2.44,0,0,1,2-.19,3.31,3.31,0,0,1,1.71,1.25,3.68,3.68,0,0,1,.6,2.13,5.59,5.59,0,0,1-.51,2.25,8.68,8.68,0,0,1-8.16,5V204a2.79,2.79,0,0,1,1.77.6,4,4,0,0,1,1.14,1.52,5.12,5.12,0,0,1-.1,3.79,19.81,19.81,0,0,1-1.82,3.47,16.31,16.31,0,0,1-2.55,3.1,8.32,8.32,0,0,1-2.64,1.67,5.1,5.1,0,0,1-3.06.19l.18-.27A11.2,11.2,0,0,1,176,224a6.85,6.85,0,0,1-.6,3,5.32,5.32,0,0,1-2,2.18,5.51,5.51,0,0,1-2.7.88,3.89,3.89,0,0,1-2.61-.8,2.53,2.53,0,0,1-1.1-2.35,1.44,1.44,0,0,1,.81-1,1.15,1.15,0,0,1,1.28.1l.05,0V226a6.88,6.88,0,0,1-1.11,3.81,7.31,7.31,0,0,1-2.61,2.42,6.28,6.28,0,0,1-3,.74,6.76,6.76,0,0,1-2.57-.51,6.9,6.9,0,0,1-2.9-2.16,4.85,4.85,0,0,1-.65-1.08s.2.39.72,1a7,7,0,0,0,2.88,2.06,6.62,6.62,0,0,0,2.52.47,6,6,0,0,0,2.9-.75,6.93,6.93,0,0,0,2.5-2.36,6.59,6.59,0,0,0,1.05-3.66l0,.1c-.53-.45-1.53,0-1.62.78a2.26,2.26,0,0,0,1,2.06,3.49,3.49,0,0,0,2.41.72,5.27,5.27,0,0,0,2.54-.83,5,5,0,0,0,1.85-2,6.46,6.46,0,0,0,.57-2.83,10.81,10.81,0,0,0-2-5.7l-.26-.39.45.12a4.75,4.75,0,0,0,2.86-.18,7.92,7.92,0,0,0,2.52-1.6,15.63,15.63,0,0,0,2.49-3,18.78,18.78,0,0,0,1.79-3.4,4.73,4.73,0,0,0,.11-3.54,2.85,2.85,0,0,0-2.58-1.91V204a8.38,8.38,0,0,0,7.88-4.81,4.33,4.33,0,0,0-.05-4.11,2.63,2.63,0,0,0-3.33-1l0-.22a5.14,5.14,0,0,0,4.72-2,4.82,4.82,0,0,0,.88-3.83,5.14,5.14,0,0,0-1-2.32C189.65,185.29,189.4,185.1,189.41,185.08Z" style="fill:#455a64"></path><path d="M187.91,169.68s.07-.1.24-.26l.75-.72a11.66,11.66,0,0,0,2.34-3,5.65,5.65,0,0,0,.62-2.49,4.3,4.3,0,0,0-1-2.69,8.09,8.09,0,0,0-2.53-2.07,5.5,5.5,0,0,0-3.36-.67,4.75,4.75,0,0,0-.57.14l-.08-.35a3.49,3.49,0,0,0,2.44-2.07,6.28,6.28,0,0,0,.42-3.1,10.43,10.43,0,0,0-1.66-5.08,4.28,4.28,0,0,0-3-1.76,4.59,4.59,0,0,0-1.32.14,1,1,0,0,1,.32-.14,3.12,3.12,0,0,1,1-.13,4.35,4.35,0,0,1,3.21,1.74,10.53,10.53,0,0,1,1.78,5.2,6.4,6.4,0,0,1-.43,3.28,3.81,3.81,0,0,1-2.69,2.27l-.09-.34a6.23,6.23,0,0,1,.62-.15,5.82,5.82,0,0,1,3.58.72,8.36,8.36,0,0,1,2.63,2.16,4.64,4.64,0,0,1,1,2.9,5.75,5.75,0,0,1-.69,2.6,10.81,10.81,0,0,1-2.46,3c-.34.3-.61.52-.8.67A1.34,1.34,0,0,1,187.91,169.68Z" style="fill:#455a64"></path><path d="M38.94,220.24a1.19,1.19,0,0,1-.16-.34,2.75,2.75,0,0,1-.15-1.08,5,5,0,0,1,1.92-3.43c1.27-1.19,3.27-1.74,5.26-2.62a8.14,8.14,0,0,0,2.79-1.91c.79-.87,1.39-2,2.29-2.93A16.09,16.09,0,0,1,54,205.76a12.39,12.39,0,0,0,2.55-2.26,13.89,13.89,0,0,0,2.77-5.06,14.14,14.14,0,0,0,.58-3.87c0-.94-.08-1.45,0-1.45a1.22,1.22,0,0,1,.07.37,7.33,7.33,0,0,1,.1,1.07,12.85,12.85,0,0,1-.47,3.95,13.83,13.83,0,0,1-2.76,5.2,12.56,12.56,0,0,1-2.61,2.34,17,17,0,0,0-3,2.12c-.86.9-1.47,2-2.3,2.92a8.18,8.18,0,0,1-2.9,2c-2,.89-4,1.4-5.24,2.52a5.06,5.06,0,0,0-2,3.25A3.9,3.9,0,0,0,38.94,220.24Z" style="fill:#455a64"></path><path d="M36.68,209.66c0-.14.54-.1,1.39-.27A10.2,10.2,0,0,0,41.44,208a4.68,4.68,0,0,0,1.61-1.64,3,3,0,0,0,.22-2.35,2.09,2.09,0,0,0-.69-1,2.15,2.15,0,0,0-1.13-.45,1.38,1.38,0,0,0-1,.31,1.67,1.67,0,0,0-.56,1,1.11,1.11,0,0,0,.29,1,1.78,1.78,0,0,0,1.06.46,3.28,3.28,0,0,0,2.39-1,7.71,7.71,0,0,0,2.29-4.6,9.2,9.2,0,0,0-.24-3.62c-.24-.85-.44-1.33-.32-1.4s.5.29,1,1.14a8,8,0,0,1,.85,4,8.58,8.58,0,0,1-2.4,5.66,6,6,0,0,1-1.55,1.15,4.11,4.11,0,0,1-2.12.45,3.43,3.43,0,0,1-2.17-.95A2.9,2.9,0,0,1,38.2,205a2.94,2.94,0,0,1-.1-1.31,3.42,3.42,0,0,1,1.19-2.15,3.14,3.14,0,0,1,2.32-.66,3.77,3.77,0,0,1,3.21,2.61,4.48,4.48,0,0,1-.5,3.59,5.74,5.74,0,0,1-2.25,2,8.47,8.47,0,0,1-4,1C37.14,210,36.65,209.76,36.68,209.66Z" style="fill:#263238"></path><path d="M69.5,250.91s.11-.07.09-.14a.81.81,0,0,1,0-.21,5.17,5.17,0,0,1,.42-1.1,37.62,37.62,0,0,1,1.87-3.37c1.57-2.55,3-4.54,3.46-4.32S75,244.39,73.4,247a20.07,20.07,0,0,1-2.35,3.15,6.4,6.4,0,0,1-.92.83.62.62,0,0,1-.52.13C69.44,251.06,69.46,251,69.5,250.91Z" style="fill:#263238"></path><path d="M209.85,204.75c0,.09-.55.56-1.86.82a7.77,7.77,0,0,1-5.46-1.1,7.31,7.31,0,0,1-1.5-1.21,7.82,7.82,0,0,1-1.23-1.73,8.38,8.38,0,0,1,1.38-9.23,7.09,7.09,0,0,1,2.27-1.63,5.2,5.2,0,0,1,3-.43,4.24,4.24,0,0,1,2.69,1.6,3.5,3.5,0,0,1,.68,1.49,3.69,3.69,0,0,1,0,1.59,4.47,4.47,0,0,1-1.61,2.43,5.69,5.69,0,0,1-2.44,1,8,8,0,0,1-4.59-.6,8.18,8.18,0,0,1-3.15-2.44,7.65,7.65,0,0,1-1.39-2.95,7.46,7.46,0,0,1-.17-2.41c.14-1.32.53-2,.63-1.93s0,.73.06,1.94a7.64,7.64,0,0,0,1.84,4.55,7.17,7.17,0,0,0,2.74,1.89,6.64,6.64,0,0,0,3.71.34,4,4,0,0,0,1.72-.77,2.69,2.69,0,0,0,1-1.5,1.86,1.86,0,0,0-.33-1.6,2.64,2.64,0,0,0-1.6-.93,4.45,4.45,0,0,0-3.71,1.52,6.69,6.69,0,0,0-1.77,3.68,6.87,6.87,0,0,0,.46,3.72,7,7,0,0,0,.91,1.44,7.52,7.52,0,0,0,1.18,1.09,7.88,7.88,0,0,0,4.7,1.46C209.13,204.85,209.8,204.62,209.85,204.75Z" style="fill:#263238"></path><path d="M212.7,174.15c.08.07-.21.64-1.14,1.26a6.16,6.16,0,0,1-4.62.85,6,6,0,0,1-3-1.59,6.86,6.86,0,0,1-1.9-3.41,6,6,0,0,1,.63-4.37,4.29,4.29,0,0,1,1.86-1.73,3.87,3.87,0,0,1,2.69-.19,3.09,3.09,0,0,1,2.05,1.93,4,4,0,0,1,0,2.59,4.08,4.08,0,0,1-.57,1.12,5.14,5.14,0,0,1-.8.87,6.3,6.3,0,0,1-1.88,1.08,10.86,10.86,0,0,1-6.93.14,10.23,10.23,0,0,1-4-2.28c-.79-.76-1.07-1.3-1-1.37s.55.28,1.41.82a12.13,12.13,0,0,0,3.9,1.62,10.25,10.25,0,0,0,6-.44,3.67,3.67,0,0,0,2.21-2.09,2.28,2.28,0,0,0,0-1.44,1.37,1.37,0,0,0-.92-.86,2.11,2.11,0,0,0-1.44.11,2.64,2.64,0,0,0-1.11,1,4.43,4.43,0,0,0-.51,3.14,5.53,5.53,0,0,0,1.35,2.71,5,5,0,0,0,2.25,1.41,6.1,6.1,0,0,0,4-.25C212.16,174.43,212.6,174.05,212.7,174.15Z" style="fill:#263238"></path><path d="M78.25,205.33a5.42,5.42,0,0,0-2.54,4.53,4.88,4.88,0,0,0,1.21,3.41l.36.39-.51-.14a7.43,7.43,0,0,0-4.24.15,7.11,7.11,0,0,0-3.75,2.86,7.48,7.48,0,0,0-1,6L68,223l-.4-.3a7.45,7.45,0,0,0-4.51-1.49,8.32,8.32,0,0,0-3.69.8,8.66,8.66,0,0,0-2.68,2.07s0-.08.12-.2a6.75,6.75,0,0,1,.43-.53,7.32,7.32,0,0,1,2-1.52,8.42,8.42,0,0,1,3.78-.91,7.79,7.79,0,0,1,4.71,1.51l-.26.18a7.81,7.81,0,0,1,1-6.29,7.41,7.41,0,0,1,3.94-3,7.73,7.73,0,0,1,4.43-.12l-.15.25a5,5,0,0,1-1.24-3.62,5.71,5.71,0,0,1,.88-2.83,4.62,4.62,0,0,1,1.32-1.38,3.54,3.54,0,0,1,.44-.24C78.2,205.35,78.25,205.32,78.25,205.33Z" style="fill:#455a64"></path><path d="M83.67,238a2.15,2.15,0,0,1-.39.1,2.23,2.23,0,0,1-.5.07,3,3,0,0,1-.68,0,6.37,6.37,0,0,1-4-1.68A6.22,6.22,0,0,1,76.43,234a5.34,5.34,0,0,1-.34-1.67,5.52,5.52,0,0,1,.24-1.79,6.12,6.12,0,0,1,.84-1.7,6.52,6.52,0,0,1,1.34-1.44,6.37,6.37,0,0,1,1.77-1,5.63,5.63,0,0,1,2.08-.41,4.32,4.32,0,0,1,2.08.45,1.84,1.84,0,0,1,.77.79,1.47,1.47,0,0,1,.07,1.09,1.08,1.08,0,0,1-.82.73,2,2,0,0,1-1-.09,5,5,0,0,1-1.61-1,6,6,0,0,1,.52-9.49,4.2,4.2,0,0,1,1.43-.7,10.33,10.33,0,0,0-1.35.81A6.11,6.11,0,0,0,80.14,222,5.88,5.88,0,0,0,82,227.68a4.92,4.92,0,0,0,1.51.94,1.56,1.56,0,0,0,.85.07.73.73,0,0,0,.57-.5,1.17,1.17,0,0,0-.06-.84,1.43,1.43,0,0,0-.62-.62,4,4,0,0,0-1.91-.4,5.17,5.17,0,0,0-2,.38,6.09,6.09,0,0,0-1.68,1A5.89,5.89,0,0,0,77.45,229a5.27,5.27,0,0,0-.8,1.61,4.87,4.87,0,0,0,.06,3.26,6.08,6.08,0,0,0,1.59,2.4A6.42,6.42,0,0,0,82.11,238,12,12,0,0,0,83.67,238Z" style="fill:#455a64"></path><path d="M49.44,166.15s-.37.1-1,.34A7.24,7.24,0,0,0,46,168a6.56,6.56,0,0,0-1.94,3.68,6.89,6.89,0,0,0,1.13,4.93,7.09,7.09,0,0,0,.46.59l.22.26-.34,0a6.6,6.6,0,0,0-4.26,2.18,6.3,6.3,0,0,0-1.56,3.61A7,7,0,0,0,40,186c.19.61.35.93.33.94s-.06-.07-.15-.22a4.35,4.35,0,0,1-.3-.68,6.59,6.59,0,0,1,1.18-6.53,6.85,6.85,0,0,1,4.47-2.33l-.11.3a6.21,6.21,0,0,1-.49-.63,7.13,7.13,0,0,1-1.16-5.18,6.71,6.71,0,0,1,2.09-3.82,6.8,6.8,0,0,1,2.53-1.49,5,5,0,0,1,.78-.19A1.18,1.18,0,0,1,49.44,166.15Z" style="fill:#455a64"></path><path d="M62.28,145.55s-.39-.19-1.13-.38a6.15,6.15,0,0,0-3.19.05,5.54,5.54,0,0,0-3.56,2.91,6,6,0,0,0,.23,5.57,7,7,0,0,0,.41.6l.16.23-.27.05a7.82,7.82,0,0,0-4.67,2.83,7.52,7.52,0,0,0-1.61,4.17,8.09,8.09,0,0,0,.36,3c.22.69.41,1,.38,1.07a1,1,0,0,1-.16-.25,5.14,5.14,0,0,1-.35-.78A7.8,7.8,0,0,1,50,157.21a8,8,0,0,1,4.86-3l-.11.29c-.14-.2-.31-.41-.44-.64A6.32,6.32,0,0,1,54.1,148a5.43,5.43,0,0,1,1.71-2,6.17,6.17,0,0,1,5.38-.92,4.19,4.19,0,0,1,.83.34C62.2,145.48,62.29,145.54,62.28,145.55Z" style="fill:#455a64"></path><path d="M171.2,201.86a1.48,1.48,0,0,1,.36,0H172l.59-.06a8.34,8.34,0,0,0,3.53-1.27,9,9,0,0,0,3.56-4.18,7.39,7.39,0,0,0,.53-3.2,4.22,4.22,0,0,0-.45-1.63,2.84,2.84,0,0,0-1.21-1.19,2.16,2.16,0,0,0-1.33-.22l-.37.07.19-.33a14.88,14.88,0,0,0,2.14-5.93,7,7,0,0,0-.25-2.7,6.48,6.48,0,0,0-1.11-2.07,5.07,5.07,0,0,0-2.8-1.84,7.48,7.48,0,0,0-1.24-.12,3.06,3.06,0,0,1,1.27,0A5.15,5.15,0,0,1,178,179a6.49,6.49,0,0,1,1.2,2.14,7.32,7.32,0,0,1,.3,2.8,14.87,14.87,0,0,1-2.16,6.09l-.18-.27a2.48,2.48,0,0,1,1.55.26,3.12,3.12,0,0,1,1.36,1.33,4.52,4.52,0,0,1,.49,1.77,7.71,7.71,0,0,1-.58,3.35,9.11,9.11,0,0,1-3.73,4.28,8.29,8.29,0,0,1-3.64,1.19l-.61,0-.44,0A1.45,1.45,0,0,1,171.2,201.86Z" style="fill:#455a64"></path><path d="M51.47,236.1c-.1.07-.46-.27-1-1a11.26,11.26,0,0,1-1.84-3.36,7.23,7.23,0,0,1-.31-2.78,5.2,5.2,0,0,1,1.35-3.08A5.3,5.3,0,0,1,53,224.26a4.58,4.58,0,0,1,3.86,1.49,3.4,3.4,0,0,1,.61,1,2.83,2.83,0,0,1,.24,1.18,3.43,3.43,0,0,1-.73,2.13,2.8,2.8,0,0,1-2,1.11,3,3,0,0,1-2-.65,4.89,4.89,0,0,1-1.7-2.94,7,7,0,0,1,0-2.79,6.64,6.64,0,0,1,1.84-3.45c.67-.64,1.16-.82,1.22-.73s-.24.47-.69,1.17a7.4,7.4,0,0,0-1.14,3.2,6.59,6.59,0,0,0,.17,2.27,3.47,3.47,0,0,0,1.24,2,1.34,1.34,0,0,0,.92.28,1.15,1.15,0,0,0,.77-.49,1.73,1.73,0,0,0,.34-1.05,1.64,1.64,0,0,0-.43-1,2.9,2.9,0,0,0-2.37-.92,3.71,3.71,0,0,0-3.4,3.2,6.14,6.14,0,0,0,.07,2.27,16.46,16.46,0,0,0,1.21,3.32C51.41,235.57,51.58,236,51.47,236.1Z" style="fill:#263238"></path><path d="M180.52,237.67c0-.1.33-.22.91-.48a7.13,7.13,0,0,0,2.16-1.56,5.5,5.5,0,0,0,1.49-3.54,5.66,5.66,0,0,0-1.85-4.33l-2.58-2.24,3.34.82a9.2,9.2,0,0,0,6.45-.94,9.86,9.86,0,0,0,3-2.45,8.48,8.48,0,0,0,1.58-3.2,10,10,0,0,0-.54-6.1,11,11,0,0,0-2.4-3.54l-.5-.47-.39-.34c-.21-.19-.3-.32-.27-.38s.18,0,.45.07a3.64,3.64,0,0,1,.5.21l.64.37a9.59,9.59,0,0,1,3.1,3.55,10.65,10.65,0,0,1,1,7,9.78,9.78,0,0,1-1.8,3.91,11.34,11.34,0,0,1-3.52,2.94,10.56,10.56,0,0,1-7.71,1l.77-1.43a6.94,6.94,0,0,1,2.14,5.67,6.36,6.36,0,0,1-2.18,4.18,5.93,5.93,0,0,1-2.7,1.34C180.91,237.83,180.53,237.76,180.52,237.67Z" style="fill:#263238"></path><path d="M84.73,118c-.07-.06.17-.5.8-1.14a9.55,9.55,0,0,1,3.23-2.06,10.94,10.94,0,0,1,5.84-.63A6.69,6.69,0,0,1,98,115.68a4.16,4.16,0,0,1,1.18,1.86,3.4,3.4,0,0,1-.12,2.42l-1.61-.65a10.26,10.26,0,0,1,2.67-4.11,10.66,10.66,0,0,1,8.59-2.92,9.51,9.51,0,0,1,3.82,1.36,10.6,10.6,0,0,1,2.63,2.28,9.68,9.68,0,0,1,2.11,4.46c.18,1.16,0,1.8-.06,1.8s-.25-.61-.61-1.63a10.83,10.83,0,0,0-2.38-3.8,8.89,8.89,0,0,0-12.88-.26,8.84,8.84,0,0,0-2.25,3.39l-1.6-.66a2.18,2.18,0,0,0-.62-2.34,5.29,5.29,0,0,0-2.59-1.22,10.43,10.43,0,0,0-5.18.2,12.46,12.46,0,0,0-3.22,1.47C85.2,117.79,84.82,118.08,84.73,118Z" style="fill:#263238"></path><path d="M153,116.57c-.14,0,.13-1,.09-2.72a12.12,12.12,0,0,0-.55-3,11.45,11.45,0,0,0-1.9-3.58,10.22,10.22,0,0,0-1.64-1.65,8.8,8.8,0,0,0-2.14-1.28,9,9,0,0,0-2.58-.68,10,10,0,0,0-2.83,0,10.44,10.44,0,0,0-5.44,2.52,9.26,9.26,0,0,0-1.93,2.47,4.2,4.2,0,0,0-.47,2.86,2.36,2.36,0,0,0,1.65,1.83,2.39,2.39,0,0,0,2.22-.92,2.53,2.53,0,0,0,.53-1.11,2.92,2.92,0,0,0-.07-1.28,4.08,4.08,0,0,0-1.5-2.15,6.45,6.45,0,0,0-5.07-.82,11.16,11.16,0,0,0-4.41,2,12.87,12.87,0,0,0-4.26,5.7,25.9,25.9,0,0,1-.81,2.61,5.25,5.25,0,0,1,.15-2.81,12.56,12.56,0,0,1,4.14-6.48,12.07,12.07,0,0,1,4.88-2.45,9.65,9.65,0,0,1,3.11-.22,6.59,6.59,0,0,1,3.24,1.17,5.69,5.69,0,0,1,2.16,3,4.57,4.57,0,0,1,.13,2,4.21,4.21,0,0,1-.88,1.93,4.48,4.48,0,0,1-1.68,1.29,3.8,3.8,0,0,1-2.25.26,3.75,3.75,0,0,1-2-1.17,4.71,4.71,0,0,1-1-2,5.9,5.9,0,0,1,.62-4.07,10.44,10.44,0,0,1,2.35-3,11.92,11.92,0,0,1,6.36-2.85,11.54,11.54,0,0,1,3.27,0,10.35,10.35,0,0,1,3,.89,9.92,9.92,0,0,1,2.41,1.57,11.52,11.52,0,0,1,1.78,2,11.89,11.89,0,0,1,1.84,4.06,11.08,11.08,0,0,1,.29,3.34C153.59,115.7,153.08,116.61,153,116.57Z" style="fill:#263238"></path><path d="M148.52,238.61c.09-.87,39.52,7,39.52,7S202.37,305.27,204,315.2s-5.52,66.64-5.52,66.64l4.88,25.07-117-5.8,10.18-25.17L72,255.27l35.17-15.15s8.9,11,20.12,14.5c7.2,2.25,14.2.65,18.9-5.24C148,247.07,148.13,242.53,148.52,238.61Z" style="fill:#455a64"></path><path d="M110.86,320.8l2.06-24.74,79.61-14.22s9.33,17.6,11.45,33.36-4.71,68.11-4.71,68.11,16.17,66.33,20,86H67.49s4.41-40.28,22.42-77L108.18,351Z" style="fill:#5D8CB0"></path><path d="M196.23,325.61c-.82-5.69-3.12-11.08-5.4-16.4a6,6,0,0,0-2.38-3.24l-47.51,9.48c2.78,7.19,7.26,22.49,12.16,28.54s10.56,4.14,18.4,5.56,16.67-1.18,21.29-7.42C196.26,337.44,197.05,331.31,196.23,325.61Z" style="fill:#5D8CB0"></path><path d="M196.23,325.61a14.65,14.65,0,0,1,.24,1.63,26.78,26.78,0,0,1,.06,4.73,21.05,21.05,0,0,1-1.84,7.23,17.4,17.4,0,0,1-6.48,7.4,23,23,0,0,1-11.42,3.51,14.94,14.94,0,0,1-1.64,0,15.71,15.71,0,0,1-1.67-.09c-1.11-.09-2.24-.31-3.36-.47-2.26-.33-4.61-.4-7-.6a15.27,15.27,0,0,1-7.18-2.07,13.8,13.8,0,0,1-2.89-2.62,24.38,24.38,0,0,1-2.2-3.28,101.49,101.49,0,0,1-6.4-15c-1.27-3.54-2.44-7.06-3.71-10.41l-.1-.29.29-.06,47.52-9.41h.07l.05,0a4.51,4.51,0,0,1,1.73,1.82,19.77,19.77,0,0,1,1,2.12c.59,1.38,1.13,2.69,1.62,3.92a65.55,65.55,0,0,1,2.22,6.36,30.26,30.26,0,0,1,1.16,5.58,1.52,1.52,0,0,1-.08-.36c-.05-.24-.11-.6-.21-1.07a42.19,42.19,0,0,0-1.05-4.09c-.53-1.76-1.3-3.89-2.3-6.32-.5-1.22-1.05-2.52-1.65-3.89a19.52,19.52,0,0,0-1-2.08,4.24,4.24,0,0,0-1.6-1.68l.11,0L141,315.71l.19-.35c1.29,3.37,2.45,6.88,3.72,10.42a102.49,102.49,0,0,0,6.35,15A24.6,24.6,0,0,0,153.4,344a13.2,13.2,0,0,0,2.77,2.52,14.75,14.75,0,0,0,7,2c2.4.21,4.77.29,7.05.62,1.15.18,2.25.39,3.35.49.54.05,1.09.1,1.63.1s1.08,0,1.62,0A22.71,22.71,0,0,0,188,346.29a17.28,17.28,0,0,0,6.42-7.21,21.34,21.34,0,0,0,1.9-7.13,28.37,28.37,0,0,0,0-4.7c0-.54-.08-.94-.1-1.22A2.19,2.19,0,0,1,196.23,325.61Z" style="fill:#263238"></path><path d="M182.34,284.49c-.06-.82-20.67-43.94-20.67-43.94s4.56-1.57,7.78,1.28,20.31,40.91,20.31,40.91Z" style="fill:#5D8CB0"></path><path d="M97.61,370.41s.88,19.4,20,18.51,82.51-12.47,82.51-12.47l1.07-12.13Z" style="opacity:0.30000000000000004"></path><path d="M83.81,250.26s18.67,5.64,23.58,24.36,6.91,25.23,6.91,25.23l6.32-2.36S114,252.59,90.1,247.73C90.1,247.73,84.62,247.64,83.81,250.26Z" style="fill:#5D8CB0"></path><g style="opacity:0.30000000000000004"><path d="M143.89,411a42.8,42.8,0,0,0,49.69-16A321.63,321.63,0,0,1,143.89,411Z"></path></g><path d="M141.31,407.1a2.87,2.87,0,0,1,.51-.25l1.48-.62c1.29-.53,3.18-1.26,5.52-2.14,4.67-1.75,11.19-4,18.47-6.28s14-4,18.82-5.19c2.43-.59,4.4-1,5.77-1.33l1.57-.32a2.14,2.14,0,0,1,.56-.08,2.2,2.2,0,0,1-.53.18l-1.56.42L186.2,393c-4.82,1.27-11.47,3.1-18.75,5.34s-13.8,4.46-18.51,6.13l-5.57,2-1.52.53A1.83,1.83,0,0,1,141.31,407.1Z" style="fill:#263238"></path><path d="M142.25,389.85c0-.15,10.78-.41,24.08-.6s24.09-.21,24.09-.07-10.78.41-24.08.59S142.25,390,142.25,389.85Z" style="fill:#263238"></path><path d="M200.74,299.85c.57-.14,23-9.79,23-9.79s-17.55-28.46-20.61-33.51c-6.73-11.11-19.62-11.83-19.62-11.83l8.27,30.78C192,276.5,200.74,299.85,200.74,299.85Z" style="fill:#455a64"></path><path d="M103.43,291.4a8.09,8.09,0,0,1-1-1.41c-.6-.92-1.44-2.27-2.54-3.9a140.48,140.48,0,0,0-9.11-12.31A68.8,68.8,0,0,0,80,263a56.26,56.26,0,0,0-5.31-3.44,9.24,9.24,0,0,1,1.59.64,17.37,17.37,0,0,1,1.76,1,21.2,21.2,0,0,1,2.23,1.47,62,62,0,0,1,11.07,10.7,113.84,113.84,0,0,1,9,12.48c1,1.66,1.83,3,2.36,4A8.34,8.34,0,0,1,103.43,291.4Z" style="fill:#263238"></path><path d="M73.13,255.61s-12.37,2.06-12.65,33.83,35.06,83.83,41.41,89.08,13.62,8.78,32.76,5.94c24-3.56,64.62-17,64.62-17l-15.43-18.25-54.6-2.47-34.8-71.54S85,254.22,73.13,255.61Z" style="fill:#ae7461"></path><path d="M66.61,331.35s-17.18-53.83.3-72.35c2.27-2.41,5.91-4.55,9.21-4.36,4,.22,8.11,2.85,14,10.65,13.79,18.34,24.2,48.92,24.2,48.92Z" style="fill:#455a64"></path><path d="M98.85,275.5c.14-.06,3.7,8.57,8,19.26s7.61,19.4,7.48,19.45-3.7-8.57-8-19.26S98.72,275.55,98.85,275.5Z" style="fill:#263238"></path><path d="M188.59,265.56a6.83,6.83,0,0,1,.66,1.28c.39.83.93,2.06,1.57,3.58,1.3,3,3,7.28,4.66,12s3,9.11,3.92,12.29c.46,1.59.8,2.88,1,3.77a7.06,7.06,0,0,1,.29,1.41,8.4,8.4,0,0,1-.48-1.35c-.31-1-.71-2.23-1.18-3.73-1-3.14-2.39-7.47-4.06-12.22s-3.3-9-4.51-12.06l-1.42-3.64A8.5,8.5,0,0,1,188.59,265.56Z" style="fill:#263238"></path><path d="M124.7,392.5a72.1,72.1,0,0,1-1.79,28.42c-.8,3-1.88,5.84-2.6,8.82a18.58,18.58,0,0,0-.45,7.95,16.14,16.14,0,0,0,3.12,6.45c2.75,3.66,6.83,6.55,7.85,11.21.95,4.29.66,10.28-2.39,13.74-.32.36.21.89.53.53,2.56-2.91,3.17-7.37,3-11.11a16.53,16.53,0,0,0-1.13-5.65c-.86-2.07-2.52-3.68-4-5.32a33,33,0,0,1-5-6.49,14.27,14.27,0,0,1-1.21-9.34,88.25,88.25,0,0,1,2.6-9.25,72.46,72.46,0,0,0,2-9.08,74.07,74.07,0,0,0,.17-21.08c-.07-.47-.79-.27-.73.2Z" style="fill:#263238"></path><path d="M233.11,367.47s12.7-5.8,12.7-17.13-6.87-27.65-9.39-33.42c-2.71-6.22-14.48-26.47-14.48-26.47l-21.32,8.28,8.17,35.85L151.1,344.71,157.49,367Z" style="fill:#ae7461"></path><path d="M205.1,307.85l5.33-5.44s-3.31,7.42-1.67,9,22,22,20.7,23.29c0,0-1.91-.38-12-10.23l-42.44-41.62a2.89,2.89,0,0,1,0-4.75l4-4.11a1.71,1.71,0,0,1,2.42,0h0l-5.14,5.42Z" style="fill:#263238"></path><path d="M176.73,281l5.59-5.71a.34.34,0,0,0,0-.48h0a.36.36,0,0,0-.49,0l-5.59,5.7a.36.36,0,0,0,0,.49h0A.36.36,0,0,0,176.73,281Z" style="fill:#263238"></path><path d="M178.09,282.35l5.59-5.7a.35.35,0,0,0,0-.49h0a.34.34,0,0,0-.48,0l-5.59,5.7a.34.34,0,0,0,0,.48h0A.35.35,0,0,0,178.09,282.35Z" style="fill:#263238"></path><path d="M179.45,283.68,185,278a.34.34,0,0,0,0-.48h0a.34.34,0,0,0-.48,0L179,283.2a.36.36,0,0,0,0,.49h0A.35.35,0,0,0,179.45,283.68Z" style="fill:#263238"></path><path d="M180.81,285l5.59-5.7a.34.34,0,0,0,0-.48h0a.34.34,0,0,0-.48,0l-5.59,5.7a.35.35,0,0,0,0,.49h0A.35.35,0,0,0,180.81,285Z" style="fill:#263238"></path><path d="M182.17,286.35l5.59-5.7a.35.35,0,0,0,0-.49h0a.34.34,0,0,0-.48,0l-5.59,5.7a.34.34,0,0,0,0,.48h0A.35.35,0,0,0,182.17,286.35Z" style="fill:#263238"></path><path d="M183.53,287.68l5.59-5.7a.35.35,0,0,0,0-.49h0a.34.34,0,0,0-.48,0L183,287.2a.34.34,0,0,0,0,.49h0A.35.35,0,0,0,183.53,287.68Z" style="fill:#263238"></path><path d="M184.88,289l5.6-5.7a.34.34,0,0,0,0-.48h0a.34.34,0,0,0-.48,0l-5.6,5.7a.35.35,0,0,0,0,.49h0A.34.34,0,0,0,184.88,289Z" style="fill:#263238"></path><path d="M186.24,290.35l5.59-5.7a.34.34,0,0,0,0-.49h0a.34.34,0,0,0-.48,0l-5.6,5.7a.34.34,0,0,0,0,.48h0A.34.34,0,0,0,186.24,290.35Z" style="fill:#263238"></path><path d="M187.6,291.68l5.59-5.7a.35.35,0,0,0,0-.49h0a.35.35,0,0,0-.49,0l-5.59,5.7a.34.34,0,0,0,0,.48h0A.33.33,0,0,0,187.6,291.68Z" style="fill:#263238"></path><path d="M189,293l5.59-5.7a.34.34,0,0,0,0-.48h0a.35.35,0,0,0-.49,0l-5.59,5.7a.35.35,0,0,0,0,.49h0A.34.34,0,0,0,189,293Z" style="fill:#263238"></path><path d="M190.32,294.35l5.59-5.7a.35.35,0,0,0,0-.49h0a.35.35,0,0,0-.49,0l-5.59,5.7a.34.34,0,0,0,0,.48h0A.34.34,0,0,0,190.32,294.35Z" style="fill:#263238"></path><path d="M191.68,295.68l5.59-5.7a.36.36,0,0,0,0-.49h0a.35.35,0,0,0-.49,0l-5.59,5.7a.34.34,0,0,0,0,.48h0A.34.34,0,0,0,191.68,295.68Z" style="fill:#263238"></path><path d="M193,297l5.59-5.7a.34.34,0,0,0,0-.48h0a.35.35,0,0,0-.49,0l-5.59,5.7a.36.36,0,0,0,0,.49h0A.35.35,0,0,0,193,297Z" style="fill:#263238"></path><path d="M194.4,298.35l5.59-5.71a.34.34,0,0,0,0-.48h0a.36.36,0,0,0-.49,0l-5.59,5.71a.34.34,0,0,0,0,.48h0A.36.36,0,0,0,194.4,298.35Z" style="fill:#263238"></path><path d="M195.76,299.68l5.59-5.7a.35.35,0,0,0,0-.49h0a.34.34,0,0,0-.48,0l-5.59,5.7a.34.34,0,0,0,0,.48h0A.35.35,0,0,0,195.76,299.68Z" style="fill:#263238"></path><path d="M197.12,301l5.59-5.7a.34.34,0,0,0,0-.48h0a.34.34,0,0,0-.48,0l-5.59,5.7a.35.35,0,0,0,0,.49h0A.35.35,0,0,0,197.12,301Z" style="fill:#263238"></path><path d="M198.48,302.34l5.59-5.7a.34.34,0,0,0,0-.48h0a.34.34,0,0,0-.48,0l-5.59,5.7a.35.35,0,0,0,0,.49h0A.35.35,0,0,0,198.48,302.34Z" style="fill:#263238"></path><path d="M199.84,303.68l5.59-5.7a.35.35,0,0,0,0-.49h0a.34.34,0,0,0-.48,0l-5.59,5.7a.34.34,0,0,0,0,.48h0A.35.35,0,0,0,199.84,303.68Z" style="fill:#263238"></path><path d="M201.19,305l5.6-5.7a.34.34,0,0,0,0-.48h0a.33.33,0,0,0-.48,0l-5.6,5.7a.35.35,0,0,0,0,.49h0A.34.34,0,0,0,201.19,305Z" style="fill:#263238"></path><path d="M202.54,306.35l5.61-5.71a.34.34,0,0,0,0-.48h0a.34.34,0,0,0-.48,0l-5.61,5.71a.35.35,0,0,0,0,.49h0A.34.34,0,0,0,202.54,306.35Z" style="fill:#263238"></path><path d="M203.91,307.68l5.59-5.7a.35.35,0,0,0,0-.49h0a.35.35,0,0,0-.49,0l-5.59,5.7a.34.34,0,0,0,0,.48h0A.34.34,0,0,0,203.91,307.68Z" style="fill:#263238"></path><path d="M195,337l4.88-15.77,3.68-13,10.4-8s3.52.41,2.43,3.13S210,311,210,311l-3.14,8.76,3.6-6.27a9.87,9.87,0,0,1,4.21-4l2.67-1.32a8.49,8.49,0,0,1,4.37-.86l5.07.38s.82,3.74-3,3.82l-2.55.19-5.75,3.9L212,324.07l4.73-7.35a3.25,3.25,0,0,1,1.45-1.22l3.93-1.68a6.83,6.83,0,0,1,4.37-.33l3.55,1.15s1,2.74-1.6,2.74a18.5,18.5,0,0,1-3.66-.27l-4.5,2.62-4,8.3,5.5-4.53a7.11,7.11,0,0,1,3.32-1.52l6.67-1.12s2.52,2.15-.24,3.67a69.39,69.39,0,0,1-7.06,3L220,333Z" style="fill:#ae7461"></path><polygon points="28.42 307.04 35.09 338.37 48.51 332.22 50.2 328.44 56.4 327.26 52.44 308.66 46.52 309.86 43.47 307.34 28.42 307.04" style="fill:#263238"></polygon><path d="M107.85,341.5s8.64,27.07,9.58,30.77.32,6.28,3.95,6.37,9.66,0,10.63-2.26-1.22-7.1-1.69-11.33-4.37-25.34-5-28.37-4.27-2.42-4.89-6,3-9.62,3-9.62-19.66,3.71-19.49,4.14,5.24,4.26,4.54,8.45S105.6,335.7,107.85,341.5Z" style="fill:#263238"></path><path d="M121,376.25l2.39,17s3.56.28,3.53-.14,2.29-16.92,2.29-16.92Z" style="fill:#263238"></path><path d="M58.31,308.33s-6.9,1.62-7.37,1.56L54.57,327l7.37-1.57h.43L58.7,308.14Z" style="fill:#263238"></path><path d="M137.18,287.78s-.78-.2-2.08-.48h0l-.51-.1c-2-.32-9.8-.56-21.75,12.18-11.2,11.92-10.93,22.47-10.39,26.15A37,37,0,0,0,118.69,323c15.49-6,23.26-12.8,23.26-12.8C143.84,299.2,137.18,287.78,137.18,287.78Z" style="fill:#263238"></path><path d="M112.84,299.38c12-12.74,19.78-12.5,21.75-12.18-4.59-.95-14.44-2.61-22.44-1.35-10.82,1.7-22.14,7.43-22.14,7.43L58.7,308.14l3.67,17.24h10.9c13.72-1.82,21.7-.21,29.18.14C101.91,321.85,101.64,311.3,112.84,299.38Z" style="fill:#263238"></path><polygon points="135.1 287.3 135.1 287.3 135.1 287.3 135.1 287.3" style="fill:#5D8CB0"></polygon><path d="M50.23,328.24A87.06,87.06,0,0,1,48,319a87.6,87.6,0,0,1-1.72-9.35,86.29,86.29,0,0,1,2.23,9.24A84.23,84.23,0,0,1,50.23,328.24Z" style="fill:#455a64"></path><path d="M52.47,308.65a83.93,83.93,0,0,1,2.19,9,82.93,82.93,0,0,1,1.68,9.14,83.34,83.34,0,0,1-2.19-9A85.78,85.78,0,0,1,52.47,308.65Z" style="fill:#455a64"></path><path d="M131.21,317a4.76,4.76,0,0,1-1,.77,33,33,0,0,1-2.79,1.84,45.09,45.09,0,0,1-21,6.28,33.15,33.15,0,0,1-3.34,0,5.25,5.25,0,0,1-1.22-.13c0-.09,1.74,0,4.54-.24a50.35,50.35,0,0,0,20.79-6.23C129.74,317.88,131.16,316.87,131.21,317Z" style="fill:#455a64"></path><path d="M140,311.38c-.14,0-1.4-5.32-2.81-12s-2.44-12-2.3-12.07,1.4,5.33,2.81,12S140.09,311.35,140,311.38Z" style="fill:#455a64"></path><path d="M152.85,346.54s-12.23-15.28-15.49-17.17-16.27,1.71-16.27,1.71c-.32,1.91-.73,2.63.69,4.62l-17.47.31a3.92,3.92,0,0,0-3.77,5l0,.09c1.08,3,5.5,5.24,5.5,5.24s-2.72,1.77,1.05,6.31,6.4,4.45,6.4,4.45-2.6-.33.51,4.09,5.3,5.73,5.3,5.73,2.74,3.55,10.31,4,23.48-1.53,28.78-4c0,0,7.11-2.67,7.06-3.26s-2.15-18.55-2.15-18.55Z" style="fill:#ae7461"></path><path d="M203,366.69A11.69,11.69,0,0,1,200,367c-2,.07-5,.13-8.9.17-7.72.08-18.88.09-32.63,0l.08,0a41.91,41.91,0,0,1-8.83,2.37q-4.68.86-9.77,1.32a70.11,70.11,0,0,1-10.52.33A21.27,21.27,0,0,1,124,370.1a11.72,11.72,0,0,1-4.83-3l.06.06a21.69,21.69,0,0,1-4.49-4.58,22.68,22.68,0,0,1-1.86-2.77,4.84,4.84,0,0,1-.59-1.65,1.14,1.14,0,0,1,.3-1,1.28,1.28,0,0,1,1-.3l0,.51a7,7,0,0,1-3.47-1.51,17.84,17.84,0,0,1-2.76-2.6,11.23,11.23,0,0,1-2.12-3.27,4.31,4.31,0,0,1-.28-2,2.66,2.66,0,0,1,1-1.84l0,.46a14.48,14.48,0,0,1-3.38-1.9,7.24,7.24,0,0,1-1.42-1.4,3.86,3.86,0,0,1-.83-1.89,4.34,4.34,0,0,1,1.35-3.81,7.9,7.9,0,0,1,3.73-1.7,19.9,19.9,0,0,1,5.44-.27h0l10.93-.19-.2.41a5,5,0,0,1-1-2.34,9.83,9.83,0,0,1,.3-2.47l0-.16.16,0a79.42,79.42,0,0,1,9.64-2,23.76,23.76,0,0,1,4.84-.2,8.48,8.48,0,0,1,1.21.2,4.17,4.17,0,0,1,1.12.55,15.16,15.16,0,0,1,1.8,1.56c2.24,2.19,4.21,4.52,6.14,6.81s3.75,4.56,5.51,6.8l-.22-.08L201.39,336l14.22-2.35,3.76-.61,1-.14.33,0-.32.07-1,.19-3.75.67-14.19,2.48-50.3,8.67-.14,0-.08-.11q-2.64-3.36-5.52-6.79c-1.92-2.27-3.9-4.59-6.11-6.76a13.58,13.58,0,0,0-1.74-1.49,3.6,3.6,0,0,0-1-.49,10.06,10.06,0,0,0-1.12-.19,22.76,22.76,0,0,0-4.72.22,78.24,78.24,0,0,0-9.57,2l.18-.2a10.24,10.24,0,0,0-.29,2.33,4.47,4.47,0,0,0,.94,2.09l.28.4h-.49l-10.93.2h0a19.11,19.11,0,0,0-5.28.26,7.35,7.35,0,0,0-3.48,1.57,3.83,3.83,0,0,0-1.2,3.36,4.83,4.83,0,0,0,2.06,3,14.11,14.11,0,0,0,3.25,1.83l.43.17-.39.29a2.16,2.16,0,0,0-.8,1.47,3.73,3.73,0,0,0,.25,1.77,10.87,10.87,0,0,0,2,3.11,17.27,17.27,0,0,0,2.68,2.53,6.61,6.61,0,0,0,3.15,1.41l0,.5a.79.79,0,0,0-.58.16.64.64,0,0,0-.14.58,4.42,4.42,0,0,0,.52,1.46,26.85,26.85,0,0,0,6.17,7.16l0,0,0,0a11.38,11.38,0,0,0,4.61,2.85,20.63,20.63,0,0,0,5.28,1.06,70.75,70.75,0,0,0,10.45-.3c3.38-.31,6.63-.73,9.74-1.29a42.22,42.22,0,0,0,8.74-2.32l0,0h0c13.75.11,24.91.15,32.63.14,3.86,0,6.86,0,8.89-.07A17.74,17.74,0,0,0,203,366.69Z" style="fill:#6f4439"></path><path d="M195,337l.45-.09,1.28-.21,4.91-.83,18.25-3-.1.06,4.51-5.52,0,0,0,0c1.74-.64,3.56-1.34,5.42-2.17.46-.2.92-.42,1.37-.66a3.27,3.27,0,0,0,1.16-.9c.61-.79,0-1.9-.72-2.56l.17.05-4.08.69-2.1.36a7.47,7.47,0,0,0-2,.54,7,7,0,0,0-1.83,1.15L220,325.25l-3.58,3-.81.66.45-.94,3.95-8.31,0-.06.07,0,4.5-2.62.08,0,.1,0a20.21,20.21,0,0,0,3.63.26,1.42,1.42,0,0,0,1.39-.68,2.49,2.49,0,0,0-.05-1.72l.16.15-2.66-.86a7.1,7.1,0,0,0-2.68-.49,6.75,6.75,0,0,0-2.66.64l-2.65,1.13c-.43.19-.92.37-1.31.57a2.89,2.89,0,0,0-1,.89q-.8,1.22-1.59,2.46l-3.21,5-.46-.24c.59-1.44,1.23-3,1.88-4.55.54-1.31,1.08-2.61,1.61-3.91l0-.07.07,0q2.89-2,5.75-3.9l.06,0h.06l2.55-.18h0a3.6,3.6,0,0,0,2.29-1.12,2.9,2.9,0,0,0,.53-2.39l.23.19-3.35-.24a17.05,17.05,0,0,0-3.26-.1,8.52,8.52,0,0,0-3,.95c-1,.49-2,.95-2.87,1.44a9.51,9.51,0,0,0-2.41,1.95,13,13,0,0,0-1.72,2.57q-1.56,2.7-3.06,5.33l-.43-.2,3.14-8.75,0,0,0,0a47.41,47.41,0,0,0,5.14-5.54c.69-1,1.48-2,1.41-3.09a1.67,1.67,0,0,0-.87-1.25,4.38,4.38,0,0,0-1.56-.53l.15,0-10.43,8,.07-.09c-1.29,4.5-2.45,8.56-3.46,12.11s-2,6.51-2.81,9-1.39,4.36-1.81,5.66c-.2.64-.36,1.13-.47,1.48s-.18.52-.18.52,0-.16.14-.48.24-.83.43-1.46c.39-1.31,1-3.22,1.7-5.67s1.67-5.54,2.73-9.09,2.13-7.63,3.39-12.14v-.06l.05,0,10.39-8,.07,0H214a4.69,4.69,0,0,1,1.72.59,2.08,2.08,0,0,1,1.08,1.55,3.36,3.36,0,0,1-.47,1.85,12.19,12.19,0,0,1-1,1.55,46,46,0,0,1-5.17,5.61l.06-.09-3.13,8.76-.43-.2,3.06-5.34a13.61,13.61,0,0,1,1.77-2.65,9.86,9.86,0,0,1,2.53-2.05c1-.53,1.93-1,2.9-1.46a9,9,0,0,1,3.19-1,17.78,17.78,0,0,1,3.35.09l3.35.24.19,0,0,.18a3.42,3.42,0,0,1-.63,2.84,4.14,4.14,0,0,1-2.61,1.3h0l-2.55.19.13,0q-2.85,1.92-5.75,3.9l.09-.12c-.53,1.3-1.07,2.6-1.61,3.91-.64,1.56-1.28,3.11-1.88,4.55l-.46-.24,3.22-5,1.59-2.48a3.6,3.6,0,0,1,1.16-1c.48-.25.9-.4,1.36-.6l2.65-1.13a7.35,7.35,0,0,1,2.85-.67,7.46,7.46,0,0,1,2.84.52l2.66.86.12,0,0,.11a3.06,3.06,0,0,1,0,2.11,1.49,1.49,0,0,1-.81.77,2.56,2.56,0,0,1-1,.2,20,20,0,0,1-3.74-.28l.18,0-4.51,2.61.1-.11-4,8.3-.36-.28,3.59-3,1.75-1.44a7.6,7.6,0,0,1,1.93-1.2,8,8,0,0,1,2.16-.57l2.1-.35,4.08-.68.1,0,.07.06a3.56,3.56,0,0,1,1,1.41,1.81,1.81,0,0,1-.2,1.7,3.51,3.51,0,0,1-1.3,1c-.47.24-.94.46-1.4.67-1.88.82-3.71,1.52-5.46,2.15l.08,0-4.54,5.48,0,.05H220L201.57,336l-4.87.75-1.25.19Z" style="fill:#6f4439"></path></g></svg>
